G04 #@! TF.GenerationSoftware,KiCad,Pcbnew,5.0.0*
G04 #@! TF.CreationDate,2018-09-06T16:24:21+02:00*
G04 #@! TF.ProjectId,active_filter,6163746976655F66696C7465722E6B69,rev?*
G04 #@! TF.SameCoordinates,Original*
G04 #@! TF.FileFunction,Soldermask,Top*
G04 #@! TF.FilePolarity,Negative*
%FSLAX46Y46*%
G04 Gerber Fmt 4.6, Leading zero omitted, Abs format (unit mm)*
G04 Created by KiCad (PCBNEW 5.0.0) date Thu Sep  6 16:24:21 2018*
%MOMM*%
%LPD*%
G01*
G04 APERTURE LIST*
%ADD10R,1.950000X1.000000*%
%ADD11C,0.100000*%
%ADD12C,1.275000*%
%ADD13R,3.400000X2.000000*%
%ADD14R,2.910000X1.400000*%
%ADD15R,1.700000X1.700000*%
%ADD16R,2.400000X1.700000*%
G04 APERTURE END LIST*
D10*
G04 #@! TO.C,U1*
X35527000Y-32512000D03*
X35527000Y-33782000D03*
X35527000Y-35052000D03*
X35527000Y-36322000D03*
X40927000Y-36322000D03*
X40927000Y-35052000D03*
X40927000Y-33782000D03*
X40927000Y-32512000D03*
G04 #@! TD*
D11*
G04 #@! TO.C,C2*
G36*
X34588993Y-37426535D02*
X34619935Y-37431125D01*
X34650278Y-37438725D01*
X34679730Y-37449263D01*
X34708008Y-37462638D01*
X34734838Y-37478719D01*
X34759963Y-37497353D01*
X34783140Y-37518360D01*
X34804147Y-37541537D01*
X34822781Y-37566662D01*
X34838862Y-37593492D01*
X34852237Y-37621770D01*
X34862775Y-37651222D01*
X34870375Y-37681565D01*
X34874965Y-37712507D01*
X34876500Y-37743750D01*
X34876500Y-38456250D01*
X34874965Y-38487493D01*
X34870375Y-38518435D01*
X34862775Y-38548778D01*
X34852237Y-38578230D01*
X34838862Y-38606508D01*
X34822781Y-38633338D01*
X34804147Y-38658463D01*
X34783140Y-38681640D01*
X34759963Y-38702647D01*
X34734838Y-38721281D01*
X34708008Y-38737362D01*
X34679730Y-38750737D01*
X34650278Y-38761275D01*
X34619935Y-38768875D01*
X34588993Y-38773465D01*
X34557750Y-38775000D01*
X33920250Y-38775000D01*
X33889007Y-38773465D01*
X33858065Y-38768875D01*
X33827722Y-38761275D01*
X33798270Y-38750737D01*
X33769992Y-38737362D01*
X33743162Y-38721281D01*
X33718037Y-38702647D01*
X33694860Y-38681640D01*
X33673853Y-38658463D01*
X33655219Y-38633338D01*
X33639138Y-38606508D01*
X33625763Y-38578230D01*
X33615225Y-38548778D01*
X33607625Y-38518435D01*
X33603035Y-38487493D01*
X33601500Y-38456250D01*
X33601500Y-37743750D01*
X33603035Y-37712507D01*
X33607625Y-37681565D01*
X33615225Y-37651222D01*
X33625763Y-37621770D01*
X33639138Y-37593492D01*
X33655219Y-37566662D01*
X33673853Y-37541537D01*
X33694860Y-37518360D01*
X33718037Y-37497353D01*
X33743162Y-37478719D01*
X33769992Y-37462638D01*
X33798270Y-37449263D01*
X33827722Y-37438725D01*
X33858065Y-37431125D01*
X33889007Y-37426535D01*
X33920250Y-37425000D01*
X34557750Y-37425000D01*
X34588993Y-37426535D01*
X34588993Y-37426535D01*
G37*
D12*
X34239000Y-38100000D03*
D11*
G36*
X36163993Y-37426535D02*
X36194935Y-37431125D01*
X36225278Y-37438725D01*
X36254730Y-37449263D01*
X36283008Y-37462638D01*
X36309838Y-37478719D01*
X36334963Y-37497353D01*
X36358140Y-37518360D01*
X36379147Y-37541537D01*
X36397781Y-37566662D01*
X36413862Y-37593492D01*
X36427237Y-37621770D01*
X36437775Y-37651222D01*
X36445375Y-37681565D01*
X36449965Y-37712507D01*
X36451500Y-37743750D01*
X36451500Y-38456250D01*
X36449965Y-38487493D01*
X36445375Y-38518435D01*
X36437775Y-38548778D01*
X36427237Y-38578230D01*
X36413862Y-38606508D01*
X36397781Y-38633338D01*
X36379147Y-38658463D01*
X36358140Y-38681640D01*
X36334963Y-38702647D01*
X36309838Y-38721281D01*
X36283008Y-38737362D01*
X36254730Y-38750737D01*
X36225278Y-38761275D01*
X36194935Y-38768875D01*
X36163993Y-38773465D01*
X36132750Y-38775000D01*
X35495250Y-38775000D01*
X35464007Y-38773465D01*
X35433065Y-38768875D01*
X35402722Y-38761275D01*
X35373270Y-38750737D01*
X35344992Y-38737362D01*
X35318162Y-38721281D01*
X35293037Y-38702647D01*
X35269860Y-38681640D01*
X35248853Y-38658463D01*
X35230219Y-38633338D01*
X35214138Y-38606508D01*
X35200763Y-38578230D01*
X35190225Y-38548778D01*
X35182625Y-38518435D01*
X35178035Y-38487493D01*
X35176500Y-38456250D01*
X35176500Y-37743750D01*
X35178035Y-37712507D01*
X35182625Y-37681565D01*
X35190225Y-37651222D01*
X35200763Y-37621770D01*
X35214138Y-37593492D01*
X35230219Y-37566662D01*
X35248853Y-37541537D01*
X35269860Y-37518360D01*
X35293037Y-37497353D01*
X35318162Y-37478719D01*
X35344992Y-37462638D01*
X35373270Y-37449263D01*
X35402722Y-37438725D01*
X35433065Y-37431125D01*
X35464007Y-37426535D01*
X35495250Y-37425000D01*
X36132750Y-37425000D01*
X36163993Y-37426535D01*
X36163993Y-37426535D01*
G37*
D12*
X35814000Y-38100000D03*
G04 #@! TD*
D11*
G04 #@! TO.C,C1*
G36*
X40710493Y-40220535D02*
X40741435Y-40225125D01*
X40771778Y-40232725D01*
X40801230Y-40243263D01*
X40829508Y-40256638D01*
X40856338Y-40272719D01*
X40881463Y-40291353D01*
X40904640Y-40312360D01*
X40925647Y-40335537D01*
X40944281Y-40360662D01*
X40960362Y-40387492D01*
X40973737Y-40415770D01*
X40984275Y-40445222D01*
X40991875Y-40475565D01*
X40996465Y-40506507D01*
X40998000Y-40537750D01*
X40998000Y-41250250D01*
X40996465Y-41281493D01*
X40991875Y-41312435D01*
X40984275Y-41342778D01*
X40973737Y-41372230D01*
X40960362Y-41400508D01*
X40944281Y-41427338D01*
X40925647Y-41452463D01*
X40904640Y-41475640D01*
X40881463Y-41496647D01*
X40856338Y-41515281D01*
X40829508Y-41531362D01*
X40801230Y-41544737D01*
X40771778Y-41555275D01*
X40741435Y-41562875D01*
X40710493Y-41567465D01*
X40679250Y-41569000D01*
X40041750Y-41569000D01*
X40010507Y-41567465D01*
X39979565Y-41562875D01*
X39949222Y-41555275D01*
X39919770Y-41544737D01*
X39891492Y-41531362D01*
X39864662Y-41515281D01*
X39839537Y-41496647D01*
X39816360Y-41475640D01*
X39795353Y-41452463D01*
X39776719Y-41427338D01*
X39760638Y-41400508D01*
X39747263Y-41372230D01*
X39736725Y-41342778D01*
X39729125Y-41312435D01*
X39724535Y-41281493D01*
X39723000Y-41250250D01*
X39723000Y-40537750D01*
X39724535Y-40506507D01*
X39729125Y-40475565D01*
X39736725Y-40445222D01*
X39747263Y-40415770D01*
X39760638Y-40387492D01*
X39776719Y-40360662D01*
X39795353Y-40335537D01*
X39816360Y-40312360D01*
X39839537Y-40291353D01*
X39864662Y-40272719D01*
X39891492Y-40256638D01*
X39919770Y-40243263D01*
X39949222Y-40232725D01*
X39979565Y-40225125D01*
X40010507Y-40220535D01*
X40041750Y-40219000D01*
X40679250Y-40219000D01*
X40710493Y-40220535D01*
X40710493Y-40220535D01*
G37*
D12*
X40360500Y-40894000D03*
D11*
G36*
X42285493Y-40220535D02*
X42316435Y-40225125D01*
X42346778Y-40232725D01*
X42376230Y-40243263D01*
X42404508Y-40256638D01*
X42431338Y-40272719D01*
X42456463Y-40291353D01*
X42479640Y-40312360D01*
X42500647Y-40335537D01*
X42519281Y-40360662D01*
X42535362Y-40387492D01*
X42548737Y-40415770D01*
X42559275Y-40445222D01*
X42566875Y-40475565D01*
X42571465Y-40506507D01*
X42573000Y-40537750D01*
X42573000Y-41250250D01*
X42571465Y-41281493D01*
X42566875Y-41312435D01*
X42559275Y-41342778D01*
X42548737Y-41372230D01*
X42535362Y-41400508D01*
X42519281Y-41427338D01*
X42500647Y-41452463D01*
X42479640Y-41475640D01*
X42456463Y-41496647D01*
X42431338Y-41515281D01*
X42404508Y-41531362D01*
X42376230Y-41544737D01*
X42346778Y-41555275D01*
X42316435Y-41562875D01*
X42285493Y-41567465D01*
X42254250Y-41569000D01*
X41616750Y-41569000D01*
X41585507Y-41567465D01*
X41554565Y-41562875D01*
X41524222Y-41555275D01*
X41494770Y-41544737D01*
X41466492Y-41531362D01*
X41439662Y-41515281D01*
X41414537Y-41496647D01*
X41391360Y-41475640D01*
X41370353Y-41452463D01*
X41351719Y-41427338D01*
X41335638Y-41400508D01*
X41322263Y-41372230D01*
X41311725Y-41342778D01*
X41304125Y-41312435D01*
X41299535Y-41281493D01*
X41298000Y-41250250D01*
X41298000Y-40537750D01*
X41299535Y-40506507D01*
X41304125Y-40475565D01*
X41311725Y-40445222D01*
X41322263Y-40415770D01*
X41335638Y-40387492D01*
X41351719Y-40360662D01*
X41370353Y-40335537D01*
X41391360Y-40312360D01*
X41414537Y-40291353D01*
X41439662Y-40272719D01*
X41466492Y-40256638D01*
X41494770Y-40243263D01*
X41524222Y-40232725D01*
X41554565Y-40225125D01*
X41585507Y-40220535D01*
X41616750Y-40219000D01*
X42254250Y-40219000D01*
X42285493Y-40220535D01*
X42285493Y-40220535D01*
G37*
D12*
X41935500Y-40894000D03*
G04 #@! TD*
D13*
G04 #@! TO.C,C10*
X34290000Y-25400000D03*
X29890000Y-25400000D03*
G04 #@! TD*
D11*
G04 #@! TO.C,C11*
G36*
X40989993Y-29806535D02*
X41020935Y-29811125D01*
X41051278Y-29818725D01*
X41080730Y-29829263D01*
X41109008Y-29842638D01*
X41135838Y-29858719D01*
X41160963Y-29877353D01*
X41184140Y-29898360D01*
X41205147Y-29921537D01*
X41223781Y-29946662D01*
X41239862Y-29973492D01*
X41253237Y-30001770D01*
X41263775Y-30031222D01*
X41271375Y-30061565D01*
X41275965Y-30092507D01*
X41277500Y-30123750D01*
X41277500Y-30836250D01*
X41275965Y-30867493D01*
X41271375Y-30898435D01*
X41263775Y-30928778D01*
X41253237Y-30958230D01*
X41239862Y-30986508D01*
X41223781Y-31013338D01*
X41205147Y-31038463D01*
X41184140Y-31061640D01*
X41160963Y-31082647D01*
X41135838Y-31101281D01*
X41109008Y-31117362D01*
X41080730Y-31130737D01*
X41051278Y-31141275D01*
X41020935Y-31148875D01*
X40989993Y-31153465D01*
X40958750Y-31155000D01*
X40321250Y-31155000D01*
X40290007Y-31153465D01*
X40259065Y-31148875D01*
X40228722Y-31141275D01*
X40199270Y-31130737D01*
X40170992Y-31117362D01*
X40144162Y-31101281D01*
X40119037Y-31082647D01*
X40095860Y-31061640D01*
X40074853Y-31038463D01*
X40056219Y-31013338D01*
X40040138Y-30986508D01*
X40026763Y-30958230D01*
X40016225Y-30928778D01*
X40008625Y-30898435D01*
X40004035Y-30867493D01*
X40002500Y-30836250D01*
X40002500Y-30123750D01*
X40004035Y-30092507D01*
X40008625Y-30061565D01*
X40016225Y-30031222D01*
X40026763Y-30001770D01*
X40040138Y-29973492D01*
X40056219Y-29946662D01*
X40074853Y-29921537D01*
X40095860Y-29898360D01*
X40119037Y-29877353D01*
X40144162Y-29858719D01*
X40170992Y-29842638D01*
X40199270Y-29829263D01*
X40228722Y-29818725D01*
X40259065Y-29811125D01*
X40290007Y-29806535D01*
X40321250Y-29805000D01*
X40958750Y-29805000D01*
X40989993Y-29806535D01*
X40989993Y-29806535D01*
G37*
D12*
X40640000Y-30480000D03*
D11*
G36*
X39414993Y-29806535D02*
X39445935Y-29811125D01*
X39476278Y-29818725D01*
X39505730Y-29829263D01*
X39534008Y-29842638D01*
X39560838Y-29858719D01*
X39585963Y-29877353D01*
X39609140Y-29898360D01*
X39630147Y-29921537D01*
X39648781Y-29946662D01*
X39664862Y-29973492D01*
X39678237Y-30001770D01*
X39688775Y-30031222D01*
X39696375Y-30061565D01*
X39700965Y-30092507D01*
X39702500Y-30123750D01*
X39702500Y-30836250D01*
X39700965Y-30867493D01*
X39696375Y-30898435D01*
X39688775Y-30928778D01*
X39678237Y-30958230D01*
X39664862Y-30986508D01*
X39648781Y-31013338D01*
X39630147Y-31038463D01*
X39609140Y-31061640D01*
X39585963Y-31082647D01*
X39560838Y-31101281D01*
X39534008Y-31117362D01*
X39505730Y-31130737D01*
X39476278Y-31141275D01*
X39445935Y-31148875D01*
X39414993Y-31153465D01*
X39383750Y-31155000D01*
X38746250Y-31155000D01*
X38715007Y-31153465D01*
X38684065Y-31148875D01*
X38653722Y-31141275D01*
X38624270Y-31130737D01*
X38595992Y-31117362D01*
X38569162Y-31101281D01*
X38544037Y-31082647D01*
X38520860Y-31061640D01*
X38499853Y-31038463D01*
X38481219Y-31013338D01*
X38465138Y-30986508D01*
X38451763Y-30958230D01*
X38441225Y-30928778D01*
X38433625Y-30898435D01*
X38429035Y-30867493D01*
X38427500Y-30836250D01*
X38427500Y-30123750D01*
X38429035Y-30092507D01*
X38433625Y-30061565D01*
X38441225Y-30031222D01*
X38451763Y-30001770D01*
X38465138Y-29973492D01*
X38481219Y-29946662D01*
X38499853Y-29921537D01*
X38520860Y-29898360D01*
X38544037Y-29877353D01*
X38569162Y-29858719D01*
X38595992Y-29842638D01*
X38624270Y-29829263D01*
X38653722Y-29818725D01*
X38684065Y-29811125D01*
X38715007Y-29806535D01*
X38746250Y-29805000D01*
X39383750Y-29805000D01*
X39414993Y-29806535D01*
X39414993Y-29806535D01*
G37*
D12*
X39065000Y-30480000D03*
G04 #@! TD*
D11*
G04 #@! TO.C,C12*
G36*
X41040993Y-28028535D02*
X41071935Y-28033125D01*
X41102278Y-28040725D01*
X41131730Y-28051263D01*
X41160008Y-28064638D01*
X41186838Y-28080719D01*
X41211963Y-28099353D01*
X41235140Y-28120360D01*
X41256147Y-28143537D01*
X41274781Y-28168662D01*
X41290862Y-28195492D01*
X41304237Y-28223770D01*
X41314775Y-28253222D01*
X41322375Y-28283565D01*
X41326965Y-28314507D01*
X41328500Y-28345750D01*
X41328500Y-29058250D01*
X41326965Y-29089493D01*
X41322375Y-29120435D01*
X41314775Y-29150778D01*
X41304237Y-29180230D01*
X41290862Y-29208508D01*
X41274781Y-29235338D01*
X41256147Y-29260463D01*
X41235140Y-29283640D01*
X41211963Y-29304647D01*
X41186838Y-29323281D01*
X41160008Y-29339362D01*
X41131730Y-29352737D01*
X41102278Y-29363275D01*
X41071935Y-29370875D01*
X41040993Y-29375465D01*
X41009750Y-29377000D01*
X40372250Y-29377000D01*
X40341007Y-29375465D01*
X40310065Y-29370875D01*
X40279722Y-29363275D01*
X40250270Y-29352737D01*
X40221992Y-29339362D01*
X40195162Y-29323281D01*
X40170037Y-29304647D01*
X40146860Y-29283640D01*
X40125853Y-29260463D01*
X40107219Y-29235338D01*
X40091138Y-29208508D01*
X40077763Y-29180230D01*
X40067225Y-29150778D01*
X40059625Y-29120435D01*
X40055035Y-29089493D01*
X40053500Y-29058250D01*
X40053500Y-28345750D01*
X40055035Y-28314507D01*
X40059625Y-28283565D01*
X40067225Y-28253222D01*
X40077763Y-28223770D01*
X40091138Y-28195492D01*
X40107219Y-28168662D01*
X40125853Y-28143537D01*
X40146860Y-28120360D01*
X40170037Y-28099353D01*
X40195162Y-28080719D01*
X40221992Y-28064638D01*
X40250270Y-28051263D01*
X40279722Y-28040725D01*
X40310065Y-28033125D01*
X40341007Y-28028535D01*
X40372250Y-28027000D01*
X41009750Y-28027000D01*
X41040993Y-28028535D01*
X41040993Y-28028535D01*
G37*
D12*
X40691000Y-28702000D03*
D11*
G36*
X39465993Y-28028535D02*
X39496935Y-28033125D01*
X39527278Y-28040725D01*
X39556730Y-28051263D01*
X39585008Y-28064638D01*
X39611838Y-28080719D01*
X39636963Y-28099353D01*
X39660140Y-28120360D01*
X39681147Y-28143537D01*
X39699781Y-28168662D01*
X39715862Y-28195492D01*
X39729237Y-28223770D01*
X39739775Y-28253222D01*
X39747375Y-28283565D01*
X39751965Y-28314507D01*
X39753500Y-28345750D01*
X39753500Y-29058250D01*
X39751965Y-29089493D01*
X39747375Y-29120435D01*
X39739775Y-29150778D01*
X39729237Y-29180230D01*
X39715862Y-29208508D01*
X39699781Y-29235338D01*
X39681147Y-29260463D01*
X39660140Y-29283640D01*
X39636963Y-29304647D01*
X39611838Y-29323281D01*
X39585008Y-29339362D01*
X39556730Y-29352737D01*
X39527278Y-29363275D01*
X39496935Y-29370875D01*
X39465993Y-29375465D01*
X39434750Y-29377000D01*
X38797250Y-29377000D01*
X38766007Y-29375465D01*
X38735065Y-29370875D01*
X38704722Y-29363275D01*
X38675270Y-29352737D01*
X38646992Y-29339362D01*
X38620162Y-29323281D01*
X38595037Y-29304647D01*
X38571860Y-29283640D01*
X38550853Y-29260463D01*
X38532219Y-29235338D01*
X38516138Y-29208508D01*
X38502763Y-29180230D01*
X38492225Y-29150778D01*
X38484625Y-29120435D01*
X38480035Y-29089493D01*
X38478500Y-29058250D01*
X38478500Y-28345750D01*
X38480035Y-28314507D01*
X38484625Y-28283565D01*
X38492225Y-28253222D01*
X38502763Y-28223770D01*
X38516138Y-28195492D01*
X38532219Y-28168662D01*
X38550853Y-28143537D01*
X38571860Y-28120360D01*
X38595037Y-28099353D01*
X38620162Y-28080719D01*
X38646992Y-28064638D01*
X38675270Y-28051263D01*
X38704722Y-28040725D01*
X38735065Y-28033125D01*
X38766007Y-28028535D01*
X38797250Y-28027000D01*
X39434750Y-28027000D01*
X39465993Y-28028535D01*
X39465993Y-28028535D01*
G37*
D12*
X39116000Y-28702000D03*
G04 #@! TD*
D11*
G04 #@! TO.C,C13*
G36*
X37484993Y-29806535D02*
X37515935Y-29811125D01*
X37546278Y-29818725D01*
X37575730Y-29829263D01*
X37604008Y-29842638D01*
X37630838Y-29858719D01*
X37655963Y-29877353D01*
X37679140Y-29898360D01*
X37700147Y-29921537D01*
X37718781Y-29946662D01*
X37734862Y-29973492D01*
X37748237Y-30001770D01*
X37758775Y-30031222D01*
X37766375Y-30061565D01*
X37770965Y-30092507D01*
X37772500Y-30123750D01*
X37772500Y-30836250D01*
X37770965Y-30867493D01*
X37766375Y-30898435D01*
X37758775Y-30928778D01*
X37748237Y-30958230D01*
X37734862Y-30986508D01*
X37718781Y-31013338D01*
X37700147Y-31038463D01*
X37679140Y-31061640D01*
X37655963Y-31082647D01*
X37630838Y-31101281D01*
X37604008Y-31117362D01*
X37575730Y-31130737D01*
X37546278Y-31141275D01*
X37515935Y-31148875D01*
X37484993Y-31153465D01*
X37453750Y-31155000D01*
X36816250Y-31155000D01*
X36785007Y-31153465D01*
X36754065Y-31148875D01*
X36723722Y-31141275D01*
X36694270Y-31130737D01*
X36665992Y-31117362D01*
X36639162Y-31101281D01*
X36614037Y-31082647D01*
X36590860Y-31061640D01*
X36569853Y-31038463D01*
X36551219Y-31013338D01*
X36535138Y-30986508D01*
X36521763Y-30958230D01*
X36511225Y-30928778D01*
X36503625Y-30898435D01*
X36499035Y-30867493D01*
X36497500Y-30836250D01*
X36497500Y-30123750D01*
X36499035Y-30092507D01*
X36503625Y-30061565D01*
X36511225Y-30031222D01*
X36521763Y-30001770D01*
X36535138Y-29973492D01*
X36551219Y-29946662D01*
X36569853Y-29921537D01*
X36590860Y-29898360D01*
X36614037Y-29877353D01*
X36639162Y-29858719D01*
X36665992Y-29842638D01*
X36694270Y-29829263D01*
X36723722Y-29818725D01*
X36754065Y-29811125D01*
X36785007Y-29806535D01*
X36816250Y-29805000D01*
X37453750Y-29805000D01*
X37484993Y-29806535D01*
X37484993Y-29806535D01*
G37*
D12*
X37135000Y-30480000D03*
D11*
G36*
X35909993Y-29806535D02*
X35940935Y-29811125D01*
X35971278Y-29818725D01*
X36000730Y-29829263D01*
X36029008Y-29842638D01*
X36055838Y-29858719D01*
X36080963Y-29877353D01*
X36104140Y-29898360D01*
X36125147Y-29921537D01*
X36143781Y-29946662D01*
X36159862Y-29973492D01*
X36173237Y-30001770D01*
X36183775Y-30031222D01*
X36191375Y-30061565D01*
X36195965Y-30092507D01*
X36197500Y-30123750D01*
X36197500Y-30836250D01*
X36195965Y-30867493D01*
X36191375Y-30898435D01*
X36183775Y-30928778D01*
X36173237Y-30958230D01*
X36159862Y-30986508D01*
X36143781Y-31013338D01*
X36125147Y-31038463D01*
X36104140Y-31061640D01*
X36080963Y-31082647D01*
X36055838Y-31101281D01*
X36029008Y-31117362D01*
X36000730Y-31130737D01*
X35971278Y-31141275D01*
X35940935Y-31148875D01*
X35909993Y-31153465D01*
X35878750Y-31155000D01*
X35241250Y-31155000D01*
X35210007Y-31153465D01*
X35179065Y-31148875D01*
X35148722Y-31141275D01*
X35119270Y-31130737D01*
X35090992Y-31117362D01*
X35064162Y-31101281D01*
X35039037Y-31082647D01*
X35015860Y-31061640D01*
X34994853Y-31038463D01*
X34976219Y-31013338D01*
X34960138Y-30986508D01*
X34946763Y-30958230D01*
X34936225Y-30928778D01*
X34928625Y-30898435D01*
X34924035Y-30867493D01*
X34922500Y-30836250D01*
X34922500Y-30123750D01*
X34924035Y-30092507D01*
X34928625Y-30061565D01*
X34936225Y-30031222D01*
X34946763Y-30001770D01*
X34960138Y-29973492D01*
X34976219Y-29946662D01*
X34994853Y-29921537D01*
X35015860Y-29898360D01*
X35039037Y-29877353D01*
X35064162Y-29858719D01*
X35090992Y-29842638D01*
X35119270Y-29829263D01*
X35148722Y-29818725D01*
X35179065Y-29811125D01*
X35210007Y-29806535D01*
X35241250Y-29805000D01*
X35878750Y-29805000D01*
X35909993Y-29806535D01*
X35909993Y-29806535D01*
G37*
D12*
X35560000Y-30480000D03*
G04 #@! TD*
D14*
G04 #@! TO.C,J1*
X20320000Y-29210000D03*
X23630000Y-26670000D03*
X23630000Y-31750000D03*
G04 #@! TD*
G04 #@! TO.C,J2*
X48006000Y-31750000D03*
X51316000Y-29210000D03*
G04 #@! TD*
D11*
G04 #@! TO.C,R1*
G36*
X28581493Y-35432035D02*
X28612435Y-35436625D01*
X28642778Y-35444225D01*
X28672230Y-35454763D01*
X28700508Y-35468138D01*
X28727338Y-35484219D01*
X28752463Y-35502853D01*
X28775640Y-35523860D01*
X28796647Y-35547037D01*
X28815281Y-35572162D01*
X28831362Y-35598992D01*
X28844737Y-35627270D01*
X28855275Y-35656722D01*
X28862875Y-35687065D01*
X28867465Y-35718007D01*
X28869000Y-35749250D01*
X28869000Y-36386750D01*
X28867465Y-36417993D01*
X28862875Y-36448935D01*
X28855275Y-36479278D01*
X28844737Y-36508730D01*
X28831362Y-36537008D01*
X28815281Y-36563838D01*
X28796647Y-36588963D01*
X28775640Y-36612140D01*
X28752463Y-36633147D01*
X28727338Y-36651781D01*
X28700508Y-36667862D01*
X28672230Y-36681237D01*
X28642778Y-36691775D01*
X28612435Y-36699375D01*
X28581493Y-36703965D01*
X28550250Y-36705500D01*
X27837750Y-36705500D01*
X27806507Y-36703965D01*
X27775565Y-36699375D01*
X27745222Y-36691775D01*
X27715770Y-36681237D01*
X27687492Y-36667862D01*
X27660662Y-36651781D01*
X27635537Y-36633147D01*
X27612360Y-36612140D01*
X27591353Y-36588963D01*
X27572719Y-36563838D01*
X27556638Y-36537008D01*
X27543263Y-36508730D01*
X27532725Y-36479278D01*
X27525125Y-36448935D01*
X27520535Y-36417993D01*
X27519000Y-36386750D01*
X27519000Y-35749250D01*
X27520535Y-35718007D01*
X27525125Y-35687065D01*
X27532725Y-35656722D01*
X27543263Y-35627270D01*
X27556638Y-35598992D01*
X27572719Y-35572162D01*
X27591353Y-35547037D01*
X27612360Y-35523860D01*
X27635537Y-35502853D01*
X27660662Y-35484219D01*
X27687492Y-35468138D01*
X27715770Y-35454763D01*
X27745222Y-35444225D01*
X27775565Y-35436625D01*
X27806507Y-35432035D01*
X27837750Y-35430500D01*
X28550250Y-35430500D01*
X28581493Y-35432035D01*
X28581493Y-35432035D01*
G37*
D12*
X28194000Y-36068000D03*
D11*
G36*
X28581493Y-33857035D02*
X28612435Y-33861625D01*
X28642778Y-33869225D01*
X28672230Y-33879763D01*
X28700508Y-33893138D01*
X28727338Y-33909219D01*
X28752463Y-33927853D01*
X28775640Y-33948860D01*
X28796647Y-33972037D01*
X28815281Y-33997162D01*
X28831362Y-34023992D01*
X28844737Y-34052270D01*
X28855275Y-34081722D01*
X28862875Y-34112065D01*
X28867465Y-34143007D01*
X28869000Y-34174250D01*
X28869000Y-34811750D01*
X28867465Y-34842993D01*
X28862875Y-34873935D01*
X28855275Y-34904278D01*
X28844737Y-34933730D01*
X28831362Y-34962008D01*
X28815281Y-34988838D01*
X28796647Y-35013963D01*
X28775640Y-35037140D01*
X28752463Y-35058147D01*
X28727338Y-35076781D01*
X28700508Y-35092862D01*
X28672230Y-35106237D01*
X28642778Y-35116775D01*
X28612435Y-35124375D01*
X28581493Y-35128965D01*
X28550250Y-35130500D01*
X27837750Y-35130500D01*
X27806507Y-35128965D01*
X27775565Y-35124375D01*
X27745222Y-35116775D01*
X27715770Y-35106237D01*
X27687492Y-35092862D01*
X27660662Y-35076781D01*
X27635537Y-35058147D01*
X27612360Y-35037140D01*
X27591353Y-35013963D01*
X27572719Y-34988838D01*
X27556638Y-34962008D01*
X27543263Y-34933730D01*
X27532725Y-34904278D01*
X27525125Y-34873935D01*
X27520535Y-34842993D01*
X27519000Y-34811750D01*
X27519000Y-34174250D01*
X27520535Y-34143007D01*
X27525125Y-34112065D01*
X27532725Y-34081722D01*
X27543263Y-34052270D01*
X27556638Y-34023992D01*
X27572719Y-33997162D01*
X27591353Y-33972037D01*
X27612360Y-33948860D01*
X27635537Y-33927853D01*
X27660662Y-33909219D01*
X27687492Y-33893138D01*
X27715770Y-33879763D01*
X27745222Y-33869225D01*
X27775565Y-33861625D01*
X27806507Y-33857035D01*
X27837750Y-33855500D01*
X28550250Y-33855500D01*
X28581493Y-33857035D01*
X28581493Y-33857035D01*
G37*
D12*
X28194000Y-34493000D03*
G04 #@! TD*
D11*
G04 #@! TO.C,R2*
G36*
X30016993Y-37426535D02*
X30047935Y-37431125D01*
X30078278Y-37438725D01*
X30107730Y-37449263D01*
X30136008Y-37462638D01*
X30162838Y-37478719D01*
X30187963Y-37497353D01*
X30211140Y-37518360D01*
X30232147Y-37541537D01*
X30250781Y-37566662D01*
X30266862Y-37593492D01*
X30280237Y-37621770D01*
X30290775Y-37651222D01*
X30298375Y-37681565D01*
X30302965Y-37712507D01*
X30304500Y-37743750D01*
X30304500Y-38456250D01*
X30302965Y-38487493D01*
X30298375Y-38518435D01*
X30290775Y-38548778D01*
X30280237Y-38578230D01*
X30266862Y-38606508D01*
X30250781Y-38633338D01*
X30232147Y-38658463D01*
X30211140Y-38681640D01*
X30187963Y-38702647D01*
X30162838Y-38721281D01*
X30136008Y-38737362D01*
X30107730Y-38750737D01*
X30078278Y-38761275D01*
X30047935Y-38768875D01*
X30016993Y-38773465D01*
X29985750Y-38775000D01*
X29348250Y-38775000D01*
X29317007Y-38773465D01*
X29286065Y-38768875D01*
X29255722Y-38761275D01*
X29226270Y-38750737D01*
X29197992Y-38737362D01*
X29171162Y-38721281D01*
X29146037Y-38702647D01*
X29122860Y-38681640D01*
X29101853Y-38658463D01*
X29083219Y-38633338D01*
X29067138Y-38606508D01*
X29053763Y-38578230D01*
X29043225Y-38548778D01*
X29035625Y-38518435D01*
X29031035Y-38487493D01*
X29029500Y-38456250D01*
X29029500Y-37743750D01*
X29031035Y-37712507D01*
X29035625Y-37681565D01*
X29043225Y-37651222D01*
X29053763Y-37621770D01*
X29067138Y-37593492D01*
X29083219Y-37566662D01*
X29101853Y-37541537D01*
X29122860Y-37518360D01*
X29146037Y-37497353D01*
X29171162Y-37478719D01*
X29197992Y-37462638D01*
X29226270Y-37449263D01*
X29255722Y-37438725D01*
X29286065Y-37431125D01*
X29317007Y-37426535D01*
X29348250Y-37425000D01*
X29985750Y-37425000D01*
X30016993Y-37426535D01*
X30016993Y-37426535D01*
G37*
D12*
X29667000Y-38100000D03*
D11*
G36*
X31591993Y-37426535D02*
X31622935Y-37431125D01*
X31653278Y-37438725D01*
X31682730Y-37449263D01*
X31711008Y-37462638D01*
X31737838Y-37478719D01*
X31762963Y-37497353D01*
X31786140Y-37518360D01*
X31807147Y-37541537D01*
X31825781Y-37566662D01*
X31841862Y-37593492D01*
X31855237Y-37621770D01*
X31865775Y-37651222D01*
X31873375Y-37681565D01*
X31877965Y-37712507D01*
X31879500Y-37743750D01*
X31879500Y-38456250D01*
X31877965Y-38487493D01*
X31873375Y-38518435D01*
X31865775Y-38548778D01*
X31855237Y-38578230D01*
X31841862Y-38606508D01*
X31825781Y-38633338D01*
X31807147Y-38658463D01*
X31786140Y-38681640D01*
X31762963Y-38702647D01*
X31737838Y-38721281D01*
X31711008Y-38737362D01*
X31682730Y-38750737D01*
X31653278Y-38761275D01*
X31622935Y-38768875D01*
X31591993Y-38773465D01*
X31560750Y-38775000D01*
X30923250Y-38775000D01*
X30892007Y-38773465D01*
X30861065Y-38768875D01*
X30830722Y-38761275D01*
X30801270Y-38750737D01*
X30772992Y-38737362D01*
X30746162Y-38721281D01*
X30721037Y-38702647D01*
X30697860Y-38681640D01*
X30676853Y-38658463D01*
X30658219Y-38633338D01*
X30642138Y-38606508D01*
X30628763Y-38578230D01*
X30618225Y-38548778D01*
X30610625Y-38518435D01*
X30606035Y-38487493D01*
X30604500Y-38456250D01*
X30604500Y-37743750D01*
X30606035Y-37712507D01*
X30610625Y-37681565D01*
X30618225Y-37651222D01*
X30628763Y-37621770D01*
X30642138Y-37593492D01*
X30658219Y-37566662D01*
X30676853Y-37541537D01*
X30697860Y-37518360D01*
X30721037Y-37497353D01*
X30746162Y-37478719D01*
X30772992Y-37462638D01*
X30801270Y-37449263D01*
X30830722Y-37438725D01*
X30861065Y-37431125D01*
X30892007Y-37426535D01*
X30923250Y-37425000D01*
X31560750Y-37425000D01*
X31591993Y-37426535D01*
X31591993Y-37426535D01*
G37*
D12*
X31242000Y-38100000D03*
G04 #@! TD*
D11*
G04 #@! TO.C,R3*
G36*
X39770993Y-37426535D02*
X39801935Y-37431125D01*
X39832278Y-37438725D01*
X39861730Y-37449263D01*
X39890008Y-37462638D01*
X39916838Y-37478719D01*
X39941963Y-37497353D01*
X39965140Y-37518360D01*
X39986147Y-37541537D01*
X40004781Y-37566662D01*
X40020862Y-37593492D01*
X40034237Y-37621770D01*
X40044775Y-37651222D01*
X40052375Y-37681565D01*
X40056965Y-37712507D01*
X40058500Y-37743750D01*
X40058500Y-38456250D01*
X40056965Y-38487493D01*
X40052375Y-38518435D01*
X40044775Y-38548778D01*
X40034237Y-38578230D01*
X40020862Y-38606508D01*
X40004781Y-38633338D01*
X39986147Y-38658463D01*
X39965140Y-38681640D01*
X39941963Y-38702647D01*
X39916838Y-38721281D01*
X39890008Y-38737362D01*
X39861730Y-38750737D01*
X39832278Y-38761275D01*
X39801935Y-38768875D01*
X39770993Y-38773465D01*
X39739750Y-38775000D01*
X39102250Y-38775000D01*
X39071007Y-38773465D01*
X39040065Y-38768875D01*
X39009722Y-38761275D01*
X38980270Y-38750737D01*
X38951992Y-38737362D01*
X38925162Y-38721281D01*
X38900037Y-38702647D01*
X38876860Y-38681640D01*
X38855853Y-38658463D01*
X38837219Y-38633338D01*
X38821138Y-38606508D01*
X38807763Y-38578230D01*
X38797225Y-38548778D01*
X38789625Y-38518435D01*
X38785035Y-38487493D01*
X38783500Y-38456250D01*
X38783500Y-37743750D01*
X38785035Y-37712507D01*
X38789625Y-37681565D01*
X38797225Y-37651222D01*
X38807763Y-37621770D01*
X38821138Y-37593492D01*
X38837219Y-37566662D01*
X38855853Y-37541537D01*
X38876860Y-37518360D01*
X38900037Y-37497353D01*
X38925162Y-37478719D01*
X38951992Y-37462638D01*
X38980270Y-37449263D01*
X39009722Y-37438725D01*
X39040065Y-37431125D01*
X39071007Y-37426535D01*
X39102250Y-37425000D01*
X39739750Y-37425000D01*
X39770993Y-37426535D01*
X39770993Y-37426535D01*
G37*
D12*
X39421000Y-38100000D03*
D11*
G36*
X38195993Y-37426535D02*
X38226935Y-37431125D01*
X38257278Y-37438725D01*
X38286730Y-37449263D01*
X38315008Y-37462638D01*
X38341838Y-37478719D01*
X38366963Y-37497353D01*
X38390140Y-37518360D01*
X38411147Y-37541537D01*
X38429781Y-37566662D01*
X38445862Y-37593492D01*
X38459237Y-37621770D01*
X38469775Y-37651222D01*
X38477375Y-37681565D01*
X38481965Y-37712507D01*
X38483500Y-37743750D01*
X38483500Y-38456250D01*
X38481965Y-38487493D01*
X38477375Y-38518435D01*
X38469775Y-38548778D01*
X38459237Y-38578230D01*
X38445862Y-38606508D01*
X38429781Y-38633338D01*
X38411147Y-38658463D01*
X38390140Y-38681640D01*
X38366963Y-38702647D01*
X38341838Y-38721281D01*
X38315008Y-38737362D01*
X38286730Y-38750737D01*
X38257278Y-38761275D01*
X38226935Y-38768875D01*
X38195993Y-38773465D01*
X38164750Y-38775000D01*
X37527250Y-38775000D01*
X37496007Y-38773465D01*
X37465065Y-38768875D01*
X37434722Y-38761275D01*
X37405270Y-38750737D01*
X37376992Y-38737362D01*
X37350162Y-38721281D01*
X37325037Y-38702647D01*
X37301860Y-38681640D01*
X37280853Y-38658463D01*
X37262219Y-38633338D01*
X37246138Y-38606508D01*
X37232763Y-38578230D01*
X37222225Y-38548778D01*
X37214625Y-38518435D01*
X37210035Y-38487493D01*
X37208500Y-38456250D01*
X37208500Y-37743750D01*
X37210035Y-37712507D01*
X37214625Y-37681565D01*
X37222225Y-37651222D01*
X37232763Y-37621770D01*
X37246138Y-37593492D01*
X37262219Y-37566662D01*
X37280853Y-37541537D01*
X37301860Y-37518360D01*
X37325037Y-37497353D01*
X37350162Y-37478719D01*
X37376992Y-37462638D01*
X37405270Y-37449263D01*
X37434722Y-37438725D01*
X37465065Y-37431125D01*
X37496007Y-37426535D01*
X37527250Y-37425000D01*
X38164750Y-37425000D01*
X38195993Y-37426535D01*
X38195993Y-37426535D01*
G37*
D12*
X37846000Y-38100000D03*
G04 #@! TD*
D11*
G04 #@! TO.C,R5*
G36*
X33661493Y-28320035D02*
X33692435Y-28324625D01*
X33722778Y-28332225D01*
X33752230Y-28342763D01*
X33780508Y-28356138D01*
X33807338Y-28372219D01*
X33832463Y-28390853D01*
X33855640Y-28411860D01*
X33876647Y-28435037D01*
X33895281Y-28460162D01*
X33911362Y-28486992D01*
X33924737Y-28515270D01*
X33935275Y-28544722D01*
X33942875Y-28575065D01*
X33947465Y-28606007D01*
X33949000Y-28637250D01*
X33949000Y-29274750D01*
X33947465Y-29305993D01*
X33942875Y-29336935D01*
X33935275Y-29367278D01*
X33924737Y-29396730D01*
X33911362Y-29425008D01*
X33895281Y-29451838D01*
X33876647Y-29476963D01*
X33855640Y-29500140D01*
X33832463Y-29521147D01*
X33807338Y-29539781D01*
X33780508Y-29555862D01*
X33752230Y-29569237D01*
X33722778Y-29579775D01*
X33692435Y-29587375D01*
X33661493Y-29591965D01*
X33630250Y-29593500D01*
X32917750Y-29593500D01*
X32886507Y-29591965D01*
X32855565Y-29587375D01*
X32825222Y-29579775D01*
X32795770Y-29569237D01*
X32767492Y-29555862D01*
X32740662Y-29539781D01*
X32715537Y-29521147D01*
X32692360Y-29500140D01*
X32671353Y-29476963D01*
X32652719Y-29451838D01*
X32636638Y-29425008D01*
X32623263Y-29396730D01*
X32612725Y-29367278D01*
X32605125Y-29336935D01*
X32600535Y-29305993D01*
X32599000Y-29274750D01*
X32599000Y-28637250D01*
X32600535Y-28606007D01*
X32605125Y-28575065D01*
X32612725Y-28544722D01*
X32623263Y-28515270D01*
X32636638Y-28486992D01*
X32652719Y-28460162D01*
X32671353Y-28435037D01*
X32692360Y-28411860D01*
X32715537Y-28390853D01*
X32740662Y-28372219D01*
X32767492Y-28356138D01*
X32795770Y-28342763D01*
X32825222Y-28332225D01*
X32855565Y-28324625D01*
X32886507Y-28320035D01*
X32917750Y-28318500D01*
X33630250Y-28318500D01*
X33661493Y-28320035D01*
X33661493Y-28320035D01*
G37*
D12*
X33274000Y-28956000D03*
D11*
G36*
X33661493Y-29895035D02*
X33692435Y-29899625D01*
X33722778Y-29907225D01*
X33752230Y-29917763D01*
X33780508Y-29931138D01*
X33807338Y-29947219D01*
X33832463Y-29965853D01*
X33855640Y-29986860D01*
X33876647Y-30010037D01*
X33895281Y-30035162D01*
X33911362Y-30061992D01*
X33924737Y-30090270D01*
X33935275Y-30119722D01*
X33942875Y-30150065D01*
X33947465Y-30181007D01*
X33949000Y-30212250D01*
X33949000Y-30849750D01*
X33947465Y-30880993D01*
X33942875Y-30911935D01*
X33935275Y-30942278D01*
X33924737Y-30971730D01*
X33911362Y-31000008D01*
X33895281Y-31026838D01*
X33876647Y-31051963D01*
X33855640Y-31075140D01*
X33832463Y-31096147D01*
X33807338Y-31114781D01*
X33780508Y-31130862D01*
X33752230Y-31144237D01*
X33722778Y-31154775D01*
X33692435Y-31162375D01*
X33661493Y-31166965D01*
X33630250Y-31168500D01*
X32917750Y-31168500D01*
X32886507Y-31166965D01*
X32855565Y-31162375D01*
X32825222Y-31154775D01*
X32795770Y-31144237D01*
X32767492Y-31130862D01*
X32740662Y-31114781D01*
X32715537Y-31096147D01*
X32692360Y-31075140D01*
X32671353Y-31051963D01*
X32652719Y-31026838D01*
X32636638Y-31000008D01*
X32623263Y-30971730D01*
X32612725Y-30942278D01*
X32605125Y-30911935D01*
X32600535Y-30880993D01*
X32599000Y-30849750D01*
X32599000Y-30212250D01*
X32600535Y-30181007D01*
X32605125Y-30150065D01*
X32612725Y-30119722D01*
X32623263Y-30090270D01*
X32636638Y-30061992D01*
X32652719Y-30035162D01*
X32671353Y-30010037D01*
X32692360Y-29986860D01*
X32715537Y-29965853D01*
X32740662Y-29947219D01*
X32767492Y-29931138D01*
X32795770Y-29917763D01*
X32825222Y-29907225D01*
X32855565Y-29899625D01*
X32886507Y-29895035D01*
X32917750Y-29893500D01*
X33630250Y-29893500D01*
X33661493Y-29895035D01*
X33661493Y-29895035D01*
G37*
D12*
X33274000Y-30531000D03*
G04 #@! TD*
D11*
G04 #@! TO.C,R6*
G36*
X33649493Y-35648535D02*
X33680435Y-35653125D01*
X33710778Y-35660725D01*
X33740230Y-35671263D01*
X33768508Y-35684638D01*
X33795338Y-35700719D01*
X33820463Y-35719353D01*
X33843640Y-35740360D01*
X33864647Y-35763537D01*
X33883281Y-35788662D01*
X33899362Y-35815492D01*
X33912737Y-35843770D01*
X33923275Y-35873222D01*
X33930875Y-35903565D01*
X33935465Y-35934507D01*
X33937000Y-35965750D01*
X33937000Y-36678250D01*
X33935465Y-36709493D01*
X33930875Y-36740435D01*
X33923275Y-36770778D01*
X33912737Y-36800230D01*
X33899362Y-36828508D01*
X33883281Y-36855338D01*
X33864647Y-36880463D01*
X33843640Y-36903640D01*
X33820463Y-36924647D01*
X33795338Y-36943281D01*
X33768508Y-36959362D01*
X33740230Y-36972737D01*
X33710778Y-36983275D01*
X33680435Y-36990875D01*
X33649493Y-36995465D01*
X33618250Y-36997000D01*
X32980750Y-36997000D01*
X32949507Y-36995465D01*
X32918565Y-36990875D01*
X32888222Y-36983275D01*
X32858770Y-36972737D01*
X32830492Y-36959362D01*
X32803662Y-36943281D01*
X32778537Y-36924647D01*
X32755360Y-36903640D01*
X32734353Y-36880463D01*
X32715719Y-36855338D01*
X32699638Y-36828508D01*
X32686263Y-36800230D01*
X32675725Y-36770778D01*
X32668125Y-36740435D01*
X32663535Y-36709493D01*
X32662000Y-36678250D01*
X32662000Y-35965750D01*
X32663535Y-35934507D01*
X32668125Y-35903565D01*
X32675725Y-35873222D01*
X32686263Y-35843770D01*
X32699638Y-35815492D01*
X32715719Y-35788662D01*
X32734353Y-35763537D01*
X32755360Y-35740360D01*
X32778537Y-35719353D01*
X32803662Y-35700719D01*
X32830492Y-35684638D01*
X32858770Y-35671263D01*
X32888222Y-35660725D01*
X32918565Y-35653125D01*
X32949507Y-35648535D01*
X32980750Y-35647000D01*
X33618250Y-35647000D01*
X33649493Y-35648535D01*
X33649493Y-35648535D01*
G37*
D12*
X33299500Y-36322000D03*
D11*
G36*
X32074493Y-35648535D02*
X32105435Y-35653125D01*
X32135778Y-35660725D01*
X32165230Y-35671263D01*
X32193508Y-35684638D01*
X32220338Y-35700719D01*
X32245463Y-35719353D01*
X32268640Y-35740360D01*
X32289647Y-35763537D01*
X32308281Y-35788662D01*
X32324362Y-35815492D01*
X32337737Y-35843770D01*
X32348275Y-35873222D01*
X32355875Y-35903565D01*
X32360465Y-35934507D01*
X32362000Y-35965750D01*
X32362000Y-36678250D01*
X32360465Y-36709493D01*
X32355875Y-36740435D01*
X32348275Y-36770778D01*
X32337737Y-36800230D01*
X32324362Y-36828508D01*
X32308281Y-36855338D01*
X32289647Y-36880463D01*
X32268640Y-36903640D01*
X32245463Y-36924647D01*
X32220338Y-36943281D01*
X32193508Y-36959362D01*
X32165230Y-36972737D01*
X32135778Y-36983275D01*
X32105435Y-36990875D01*
X32074493Y-36995465D01*
X32043250Y-36997000D01*
X31405750Y-36997000D01*
X31374507Y-36995465D01*
X31343565Y-36990875D01*
X31313222Y-36983275D01*
X31283770Y-36972737D01*
X31255492Y-36959362D01*
X31228662Y-36943281D01*
X31203537Y-36924647D01*
X31180360Y-36903640D01*
X31159353Y-36880463D01*
X31140719Y-36855338D01*
X31124638Y-36828508D01*
X31111263Y-36800230D01*
X31100725Y-36770778D01*
X31093125Y-36740435D01*
X31088535Y-36709493D01*
X31087000Y-36678250D01*
X31087000Y-35965750D01*
X31088535Y-35934507D01*
X31093125Y-35903565D01*
X31100725Y-35873222D01*
X31111263Y-35843770D01*
X31124638Y-35815492D01*
X31140719Y-35788662D01*
X31159353Y-35763537D01*
X31180360Y-35740360D01*
X31203537Y-35719353D01*
X31228662Y-35700719D01*
X31255492Y-35684638D01*
X31283770Y-35671263D01*
X31313222Y-35660725D01*
X31343565Y-35653125D01*
X31374507Y-35648535D01*
X31405750Y-35647000D01*
X32043250Y-35647000D01*
X32074493Y-35648535D01*
X32074493Y-35648535D01*
G37*
D12*
X31724500Y-36322000D03*
G04 #@! TD*
D15*
G04 #@! TO.C,RV4*
X51010000Y-36950000D03*
D16*
X45510000Y-38100000D03*
D15*
X51010000Y-39250000D03*
G04 #@! TD*
M02*
