G04 #@! TF.GenerationSoftware,KiCad,Pcbnew,5.0.0*
G04 #@! TF.CreationDate,2018-09-26T09:14:00+02:00*
G04 #@! TF.ProjectId,active_filter,6163746976655F66696C7465722E6B69,rev?*
G04 #@! TF.SameCoordinates,Original*
G04 #@! TF.FileFunction,Legend,Top*
G04 #@! TF.FilePolarity,Positive*
%FSLAX46Y46*%
G04 Gerber Fmt 4.6, Leading zero omitted, Abs format (unit mm)*
G04 Created by KiCad (PCBNEW 5.0.0) date Wed Sep 26 09:14:00 2018*
%MOMM*%
%LPD*%
G01*
G04 APERTURE LIST*
%ADD10C,0.120000*%
%ADD11C,0.150000*%
G04 APERTURE END LIST*
D10*
G04 #@! TO.C,C12*
X33621000Y-34959000D02*
X31921000Y-34959000D01*
X28101000Y-34959000D02*
X29801000Y-34959000D01*
X28101000Y-39414563D02*
X28101000Y-34959000D01*
X33621000Y-39414563D02*
X33621000Y-34959000D01*
X32556563Y-40479000D02*
X31921000Y-40479000D01*
X29165437Y-40479000D02*
X29801000Y-40479000D01*
X29165437Y-40479000D02*
X28101000Y-39414563D01*
X32556563Y-40479000D02*
X33621000Y-39414563D01*
X29176000Y-41344000D02*
X29176000Y-40719000D01*
X28863500Y-41031500D02*
X29488500Y-41031500D01*
G04 #@! TO.C,C10*
X26508500Y-34447500D02*
X25883500Y-34447500D01*
X26196000Y-34135000D02*
X26196000Y-34760000D01*
X22815437Y-35000000D02*
X21751000Y-36064437D01*
X26206563Y-35000000D02*
X27271000Y-36064437D01*
X26206563Y-35000000D02*
X25571000Y-35000000D01*
X22815437Y-35000000D02*
X23451000Y-35000000D01*
X21751000Y-36064437D02*
X21751000Y-40520000D01*
X27271000Y-36064437D02*
X27271000Y-40520000D01*
X27271000Y-40520000D02*
X25571000Y-40520000D01*
X21751000Y-40520000D02*
X23451000Y-40520000D01*
G04 #@! TO.C,C13*
X27938000Y-46136779D02*
X27938000Y-45811221D01*
X28958000Y-46136779D02*
X28958000Y-45811221D01*
G04 #@! TO.C,C11*
X35748279Y-44956000D02*
X35422721Y-44956000D01*
X35748279Y-45976000D02*
X35422721Y-45976000D01*
G04 #@! TO.C,C2*
X39626000Y-50916721D02*
X39626000Y-51242279D01*
X38606000Y-50916721D02*
X38606000Y-51242279D01*
G04 #@! TO.C,C1*
X39626000Y-47152779D02*
X39626000Y-46827221D01*
X38606000Y-47152779D02*
X38606000Y-46827221D01*
G04 #@! TO.C,Jump0*
X24324000Y-32826000D02*
X24324000Y-31496000D01*
X25654000Y-32826000D02*
X24324000Y-32826000D01*
X26924000Y-32826000D02*
X26924000Y-30166000D01*
X26924000Y-30166000D02*
X32064000Y-30166000D01*
X26924000Y-32826000D02*
X32064000Y-32826000D01*
X32064000Y-32826000D02*
X32064000Y-30166000D01*
G04 #@! TO.C,J1*
X44390000Y-51876000D02*
X47050000Y-51876000D01*
X44390000Y-46736000D02*
X44390000Y-51876000D01*
X47050000Y-46736000D02*
X47050000Y-51876000D01*
X44390000Y-46736000D02*
X47050000Y-46736000D01*
X44390000Y-45466000D02*
X44390000Y-44136000D01*
X44390000Y-44136000D02*
X45720000Y-44136000D01*
G04 #@! TO.C,J0*
X21530000Y-44136000D02*
X22860000Y-44136000D01*
X21530000Y-45466000D02*
X21530000Y-44136000D01*
X21530000Y-46736000D02*
X24190000Y-46736000D01*
X24190000Y-46736000D02*
X24190000Y-51876000D01*
X21530000Y-46736000D02*
X21530000Y-51876000D01*
X21530000Y-51876000D02*
X24190000Y-51876000D01*
G04 #@! TO.C,RV4*
X35964000Y-28536000D02*
X45904000Y-28536000D01*
X44304000Y-40776000D02*
X45904000Y-40776000D01*
X41805000Y-40776000D02*
X42564000Y-40776000D01*
X39305000Y-40776000D02*
X40064000Y-40776000D01*
X35964000Y-40776000D02*
X37563000Y-40776000D01*
X45904000Y-32401000D02*
X45904000Y-28536000D01*
X45904000Y-40776000D02*
X45904000Y-36911000D01*
X35964000Y-32401000D02*
X35964000Y-28536000D01*
X35964000Y-40776000D02*
X35964000Y-36911000D01*
G04 #@! TO.C,R6*
X25398000Y-50891221D02*
X25398000Y-51216779D01*
X26418000Y-50891221D02*
X26418000Y-51216779D01*
G04 #@! TO.C,R5*
X26418000Y-47360721D02*
X26418000Y-47686279D01*
X25398000Y-47360721D02*
X25398000Y-47686279D01*
G04 #@! TO.C,R3*
X41146000Y-50916721D02*
X41146000Y-51242279D01*
X42166000Y-50916721D02*
X42166000Y-51242279D01*
G04 #@! TO.C,R2*
X41404000Y-46852721D02*
X41404000Y-47178279D01*
X40384000Y-46852721D02*
X40384000Y-47178279D01*
G04 #@! TO.C,R1*
X43182000Y-47178279D02*
X43182000Y-46852721D01*
X42162000Y-47178279D02*
X42162000Y-46852721D01*
D11*
G04 #@! TO.C,U1*
X31707000Y-47259000D02*
X30307000Y-47259000D01*
X31707000Y-52359000D02*
X35857000Y-52359000D01*
X31707000Y-47209000D02*
X35857000Y-47209000D01*
X31707000Y-52359000D02*
X31707000Y-52214000D01*
X35857000Y-52359000D02*
X35857000Y-52214000D01*
X35857000Y-47209000D02*
X35857000Y-47354000D01*
X31707000Y-47209000D02*
X31707000Y-47259000D01*
G04 #@! TO.C,REF\002A\002A*
X17589666Y-50236380D02*
X17256333Y-49760190D01*
X17018238Y-50236380D02*
X17018238Y-49236380D01*
X17399190Y-49236380D01*
X17494428Y-49284000D01*
X17542047Y-49331619D01*
X17589666Y-49426857D01*
X17589666Y-49569714D01*
X17542047Y-49664952D01*
X17494428Y-49712571D01*
X17399190Y-49760190D01*
X17018238Y-49760190D01*
X18018238Y-49712571D02*
X18351571Y-49712571D01*
X18494428Y-50236380D02*
X18018238Y-50236380D01*
X18018238Y-49236380D01*
X18494428Y-49236380D01*
X19256333Y-49712571D02*
X18923000Y-49712571D01*
X18923000Y-50236380D02*
X18923000Y-49236380D01*
X19399190Y-49236380D01*
X19923000Y-49236380D02*
X19923000Y-49474476D01*
X19684904Y-49379238D02*
X19923000Y-49474476D01*
X20161095Y-49379238D01*
X19780142Y-49664952D02*
X19923000Y-49474476D01*
X20065857Y-49664952D01*
X20684904Y-49236380D02*
X20684904Y-49474476D01*
X20446809Y-49379238D02*
X20684904Y-49474476D01*
X20923000Y-49379238D01*
X20542047Y-49664952D02*
X20684904Y-49474476D01*
X20827761Y-49664952D01*
X48577666Y-50109380D02*
X48244333Y-49633190D01*
X48006238Y-50109380D02*
X48006238Y-49109380D01*
X48387190Y-49109380D01*
X48482428Y-49157000D01*
X48530047Y-49204619D01*
X48577666Y-49299857D01*
X48577666Y-49442714D01*
X48530047Y-49537952D01*
X48482428Y-49585571D01*
X48387190Y-49633190D01*
X48006238Y-49633190D01*
X49006238Y-49585571D02*
X49339571Y-49585571D01*
X49482428Y-50109380D02*
X49006238Y-50109380D01*
X49006238Y-49109380D01*
X49482428Y-49109380D01*
X50244333Y-49585571D02*
X49911000Y-49585571D01*
X49911000Y-50109380D02*
X49911000Y-49109380D01*
X50387190Y-49109380D01*
X50911000Y-49109380D02*
X50911000Y-49347476D01*
X50672904Y-49252238D02*
X50911000Y-49347476D01*
X51149095Y-49252238D01*
X50768142Y-49537952D02*
X50911000Y-49347476D01*
X51053857Y-49537952D01*
X51672904Y-49109380D02*
X51672904Y-49347476D01*
X51434809Y-49252238D02*
X51672904Y-49347476D01*
X51911000Y-49252238D01*
X51530047Y-49537952D02*
X51672904Y-49347476D01*
X51815761Y-49537952D01*
X48577666Y-22296380D02*
X48244333Y-21820190D01*
X48006238Y-22296380D02*
X48006238Y-21296380D01*
X48387190Y-21296380D01*
X48482428Y-21344000D01*
X48530047Y-21391619D01*
X48577666Y-21486857D01*
X48577666Y-21629714D01*
X48530047Y-21724952D01*
X48482428Y-21772571D01*
X48387190Y-21820190D01*
X48006238Y-21820190D01*
X49006238Y-21772571D02*
X49339571Y-21772571D01*
X49482428Y-22296380D02*
X49006238Y-22296380D01*
X49006238Y-21296380D01*
X49482428Y-21296380D01*
X50244333Y-21772571D02*
X49911000Y-21772571D01*
X49911000Y-22296380D02*
X49911000Y-21296380D01*
X50387190Y-21296380D01*
X50911000Y-21296380D02*
X50911000Y-21534476D01*
X50672904Y-21439238D02*
X50911000Y-21534476D01*
X51149095Y-21439238D01*
X50768142Y-21724952D02*
X50911000Y-21534476D01*
X51053857Y-21724952D01*
X51672904Y-21296380D02*
X51672904Y-21534476D01*
X51434809Y-21439238D02*
X51672904Y-21534476D01*
X51911000Y-21439238D01*
X51530047Y-21724952D02*
X51672904Y-21534476D01*
X51815761Y-21724952D01*
G04 #@! TO.C,C12*
X27518142Y-38361857D02*
X27565761Y-38409476D01*
X27613380Y-38552333D01*
X27613380Y-38647571D01*
X27565761Y-38790428D01*
X27470523Y-38885666D01*
X27375285Y-38933285D01*
X27184809Y-38980904D01*
X27041952Y-38980904D01*
X26851476Y-38933285D01*
X26756238Y-38885666D01*
X26661000Y-38790428D01*
X26613380Y-38647571D01*
X26613380Y-38552333D01*
X26661000Y-38409476D01*
X26708619Y-38361857D01*
X27613380Y-37409476D02*
X27613380Y-37980904D01*
X27613380Y-37695190D02*
X26613380Y-37695190D01*
X26756238Y-37790428D01*
X26851476Y-37885666D01*
X26899095Y-37980904D01*
X26708619Y-37028523D02*
X26661000Y-36980904D01*
X26613380Y-36885666D01*
X26613380Y-36647571D01*
X26661000Y-36552333D01*
X26708619Y-36504714D01*
X26803857Y-36457095D01*
X26899095Y-36457095D01*
X27041952Y-36504714D01*
X27613380Y-37076142D01*
X27613380Y-36457095D01*
G04 #@! TO.C,C10*
X28568142Y-38402857D02*
X28615761Y-38450476D01*
X28663380Y-38593333D01*
X28663380Y-38688571D01*
X28615761Y-38831428D01*
X28520523Y-38926666D01*
X28425285Y-38974285D01*
X28234809Y-39021904D01*
X28091952Y-39021904D01*
X27901476Y-38974285D01*
X27806238Y-38926666D01*
X27711000Y-38831428D01*
X27663380Y-38688571D01*
X27663380Y-38593333D01*
X27711000Y-38450476D01*
X27758619Y-38402857D01*
X28663380Y-37450476D02*
X28663380Y-38021904D01*
X28663380Y-37736190D02*
X27663380Y-37736190D01*
X27806238Y-37831428D01*
X27901476Y-37926666D01*
X27949095Y-38021904D01*
X27663380Y-36831428D02*
X27663380Y-36736190D01*
X27711000Y-36640952D01*
X27758619Y-36593333D01*
X27853857Y-36545714D01*
X28044333Y-36498095D01*
X28282428Y-36498095D01*
X28472904Y-36545714D01*
X28568142Y-36593333D01*
X28615761Y-36640952D01*
X28663380Y-36736190D01*
X28663380Y-36831428D01*
X28615761Y-36926666D01*
X28568142Y-36974285D01*
X28472904Y-37021904D01*
X28282428Y-37069523D01*
X28044333Y-37069523D01*
X27853857Y-37021904D01*
X27758619Y-36974285D01*
X27711000Y-36926666D01*
X27663380Y-36831428D01*
G04 #@! TO.C,C13*
X27932142Y-48490142D02*
X27884523Y-48537761D01*
X27741666Y-48585380D01*
X27646428Y-48585380D01*
X27503571Y-48537761D01*
X27408333Y-48442523D01*
X27360714Y-48347285D01*
X27313095Y-48156809D01*
X27313095Y-48013952D01*
X27360714Y-47823476D01*
X27408333Y-47728238D01*
X27503571Y-47633000D01*
X27646428Y-47585380D01*
X27741666Y-47585380D01*
X27884523Y-47633000D01*
X27932142Y-47680619D01*
X28884523Y-48585380D02*
X28313095Y-48585380D01*
X28598809Y-48585380D02*
X28598809Y-47585380D01*
X28503571Y-47728238D01*
X28408333Y-47823476D01*
X28313095Y-47871095D01*
X29217857Y-47585380D02*
X29836904Y-47585380D01*
X29503571Y-47966333D01*
X29646428Y-47966333D01*
X29741666Y-48013952D01*
X29789285Y-48061571D01*
X29836904Y-48156809D01*
X29836904Y-48394904D01*
X29789285Y-48490142D01*
X29741666Y-48537761D01*
X29646428Y-48585380D01*
X29360714Y-48585380D01*
X29265476Y-48537761D01*
X29217857Y-48490142D01*
G04 #@! TO.C,C11*
X35044142Y-44172142D02*
X34996523Y-44219761D01*
X34853666Y-44267380D01*
X34758428Y-44267380D01*
X34615571Y-44219761D01*
X34520333Y-44124523D01*
X34472714Y-44029285D01*
X34425095Y-43838809D01*
X34425095Y-43695952D01*
X34472714Y-43505476D01*
X34520333Y-43410238D01*
X34615571Y-43315000D01*
X34758428Y-43267380D01*
X34853666Y-43267380D01*
X34996523Y-43315000D01*
X35044142Y-43362619D01*
X35996523Y-44267380D02*
X35425095Y-44267380D01*
X35710809Y-44267380D02*
X35710809Y-43267380D01*
X35615571Y-43410238D01*
X35520333Y-43505476D01*
X35425095Y-43553095D01*
X36948904Y-44267380D02*
X36377476Y-44267380D01*
X36663190Y-44267380D02*
X36663190Y-43267380D01*
X36567952Y-43410238D01*
X36472714Y-43505476D01*
X36377476Y-43553095D01*
G04 #@! TO.C,C2*
X38949333Y-49379142D02*
X38901714Y-49426761D01*
X38758857Y-49474380D01*
X38663619Y-49474380D01*
X38520761Y-49426761D01*
X38425523Y-49331523D01*
X38377904Y-49236285D01*
X38330285Y-49045809D01*
X38330285Y-48902952D01*
X38377904Y-48712476D01*
X38425523Y-48617238D01*
X38520761Y-48522000D01*
X38663619Y-48474380D01*
X38758857Y-48474380D01*
X38901714Y-48522000D01*
X38949333Y-48569619D01*
X39330285Y-48569619D02*
X39377904Y-48522000D01*
X39473142Y-48474380D01*
X39711238Y-48474380D01*
X39806476Y-48522000D01*
X39854095Y-48569619D01*
X39901714Y-48664857D01*
X39901714Y-48760095D01*
X39854095Y-48902952D01*
X39282666Y-49474380D01*
X39901714Y-49474380D01*
G04 #@! TO.C,C1*
X38568333Y-45061142D02*
X38520714Y-45108761D01*
X38377857Y-45156380D01*
X38282619Y-45156380D01*
X38139761Y-45108761D01*
X38044523Y-45013523D01*
X37996904Y-44918285D01*
X37949285Y-44727809D01*
X37949285Y-44584952D01*
X37996904Y-44394476D01*
X38044523Y-44299238D01*
X38139761Y-44204000D01*
X38282619Y-44156380D01*
X38377857Y-44156380D01*
X38520714Y-44204000D01*
X38568333Y-44251619D01*
X39520714Y-45156380D02*
X38949285Y-45156380D01*
X39235000Y-45156380D02*
X39235000Y-44156380D01*
X39139761Y-44299238D01*
X39044523Y-44394476D01*
X38949285Y-44442095D01*
G04 #@! TO.C,Jump0*
X25908238Y-33234380D02*
X25908238Y-33948666D01*
X25860619Y-34091523D01*
X25765380Y-34186761D01*
X25622523Y-34234380D01*
X25527285Y-34234380D01*
X26813000Y-33567714D02*
X26813000Y-34234380D01*
X26384428Y-33567714D02*
X26384428Y-34091523D01*
X26432047Y-34186761D01*
X26527285Y-34234380D01*
X26670142Y-34234380D01*
X26765380Y-34186761D01*
X26813000Y-34139142D01*
X27289190Y-34234380D02*
X27289190Y-33567714D01*
X27289190Y-33662952D02*
X27336809Y-33615333D01*
X27432047Y-33567714D01*
X27574904Y-33567714D01*
X27670142Y-33615333D01*
X27717761Y-33710571D01*
X27717761Y-34234380D01*
X27717761Y-33710571D02*
X27765380Y-33615333D01*
X27860619Y-33567714D01*
X28003476Y-33567714D01*
X28098714Y-33615333D01*
X28146333Y-33710571D01*
X28146333Y-34234380D01*
X28622523Y-33567714D02*
X28622523Y-34567714D01*
X28622523Y-33615333D02*
X28717761Y-33567714D01*
X28908238Y-33567714D01*
X29003476Y-33615333D01*
X29051095Y-33662952D01*
X29098714Y-33758190D01*
X29098714Y-34043904D01*
X29051095Y-34139142D01*
X29003476Y-34186761D01*
X28908238Y-34234380D01*
X28717761Y-34234380D01*
X28622523Y-34186761D01*
X29717761Y-33234380D02*
X29813000Y-33234380D01*
X29908238Y-33282000D01*
X29955857Y-33329619D01*
X30003476Y-33424857D01*
X30051095Y-33615333D01*
X30051095Y-33853428D01*
X30003476Y-34043904D01*
X29955857Y-34139142D01*
X29908238Y-34186761D01*
X29813000Y-34234380D01*
X29717761Y-34234380D01*
X29622523Y-34186761D01*
X29574904Y-34139142D01*
X29527285Y-34043904D01*
X29479666Y-33853428D01*
X29479666Y-33615333D01*
X29527285Y-33424857D01*
X29574904Y-33329619D01*
X29622523Y-33282000D01*
X29717761Y-33234380D01*
G04 #@! TO.C,J1*
X45386666Y-42588380D02*
X45386666Y-43302666D01*
X45339047Y-43445523D01*
X45243809Y-43540761D01*
X45100952Y-43588380D01*
X45005714Y-43588380D01*
X46386666Y-43588380D02*
X45815238Y-43588380D01*
X46100952Y-43588380D02*
X46100952Y-42588380D01*
X46005714Y-42731238D01*
X45910476Y-42826476D01*
X45815238Y-42874095D01*
G04 #@! TO.C,J0*
X22526666Y-42588380D02*
X22526666Y-43302666D01*
X22479047Y-43445523D01*
X22383809Y-43540761D01*
X22240952Y-43588380D01*
X22145714Y-43588380D01*
X23193333Y-42588380D02*
X23288571Y-42588380D01*
X23383809Y-42636000D01*
X23431428Y-42683619D01*
X23479047Y-42778857D01*
X23526666Y-42969333D01*
X23526666Y-43207428D01*
X23479047Y-43397904D01*
X23431428Y-43493142D01*
X23383809Y-43540761D01*
X23288571Y-43588380D01*
X23193333Y-43588380D01*
X23098095Y-43540761D01*
X23050476Y-43493142D01*
X23002857Y-43397904D01*
X22955238Y-43207428D01*
X22955238Y-42969333D01*
X23002857Y-42778857D01*
X23050476Y-42683619D01*
X23098095Y-42636000D01*
X23193333Y-42588380D01*
G04 #@! TO.C,RV4*
X32551761Y-37663380D02*
X32218428Y-37187190D01*
X31980333Y-37663380D02*
X31980333Y-36663380D01*
X32361285Y-36663380D01*
X32456523Y-36711000D01*
X32504142Y-36758619D01*
X32551761Y-36853857D01*
X32551761Y-36996714D01*
X32504142Y-37091952D01*
X32456523Y-37139571D01*
X32361285Y-37187190D01*
X31980333Y-37187190D01*
X32837476Y-36663380D02*
X33170809Y-37663380D01*
X33504142Y-36663380D01*
X34266047Y-36996714D02*
X34266047Y-37663380D01*
X34027952Y-36615761D02*
X33789857Y-37330047D01*
X34408904Y-37330047D01*
G04 #@! TO.C,R6*
X27171333Y-51506380D02*
X26838000Y-51030190D01*
X26599904Y-51506380D02*
X26599904Y-50506380D01*
X26980857Y-50506380D01*
X27076095Y-50554000D01*
X27123714Y-50601619D01*
X27171333Y-50696857D01*
X27171333Y-50839714D01*
X27123714Y-50934952D01*
X27076095Y-50982571D01*
X26980857Y-51030190D01*
X26599904Y-51030190D01*
X28028476Y-50506380D02*
X27838000Y-50506380D01*
X27742761Y-50554000D01*
X27695142Y-50601619D01*
X27599904Y-50744476D01*
X27552285Y-50934952D01*
X27552285Y-51315904D01*
X27599904Y-51411142D01*
X27647523Y-51458761D01*
X27742761Y-51506380D01*
X27933238Y-51506380D01*
X28028476Y-51458761D01*
X28076095Y-51411142D01*
X28123714Y-51315904D01*
X28123714Y-51077809D01*
X28076095Y-50982571D01*
X28028476Y-50934952D01*
X27933238Y-50887333D01*
X27742761Y-50887333D01*
X27647523Y-50934952D01*
X27599904Y-50982571D01*
X27552285Y-51077809D01*
G04 #@! TO.C,R5*
X25360333Y-45918380D02*
X25027000Y-45442190D01*
X24788904Y-45918380D02*
X24788904Y-44918380D01*
X25169857Y-44918380D01*
X25265095Y-44966000D01*
X25312714Y-45013619D01*
X25360333Y-45108857D01*
X25360333Y-45251714D01*
X25312714Y-45346952D01*
X25265095Y-45394571D01*
X25169857Y-45442190D01*
X24788904Y-45442190D01*
X26265095Y-44918380D02*
X25788904Y-44918380D01*
X25741285Y-45394571D01*
X25788904Y-45346952D01*
X25884142Y-45299333D01*
X26122238Y-45299333D01*
X26217476Y-45346952D01*
X26265095Y-45394571D01*
X26312714Y-45489809D01*
X26312714Y-45727904D01*
X26265095Y-45823142D01*
X26217476Y-45870761D01*
X26122238Y-45918380D01*
X25884142Y-45918380D01*
X25788904Y-45870761D01*
X25741285Y-45823142D01*
G04 #@! TO.C,R3*
X43140333Y-51506380D02*
X42807000Y-51030190D01*
X42568904Y-51506380D02*
X42568904Y-50506380D01*
X42949857Y-50506380D01*
X43045095Y-50554000D01*
X43092714Y-50601619D01*
X43140333Y-50696857D01*
X43140333Y-50839714D01*
X43092714Y-50934952D01*
X43045095Y-50982571D01*
X42949857Y-51030190D01*
X42568904Y-51030190D01*
X43473666Y-50506380D02*
X44092714Y-50506380D01*
X43759380Y-50887333D01*
X43902238Y-50887333D01*
X43997476Y-50934952D01*
X44045095Y-50982571D01*
X44092714Y-51077809D01*
X44092714Y-51315904D01*
X44045095Y-51411142D01*
X43997476Y-51458761D01*
X43902238Y-51506380D01*
X43616523Y-51506380D01*
X43521285Y-51458761D01*
X43473666Y-51411142D01*
G04 #@! TO.C,R2*
X40600333Y-45156380D02*
X40267000Y-44680190D01*
X40028904Y-45156380D02*
X40028904Y-44156380D01*
X40409857Y-44156380D01*
X40505095Y-44204000D01*
X40552714Y-44251619D01*
X40600333Y-44346857D01*
X40600333Y-44489714D01*
X40552714Y-44584952D01*
X40505095Y-44632571D01*
X40409857Y-44680190D01*
X40028904Y-44680190D01*
X40981285Y-44251619D02*
X41028904Y-44204000D01*
X41124142Y-44156380D01*
X41362238Y-44156380D01*
X41457476Y-44204000D01*
X41505095Y-44251619D01*
X41552714Y-44346857D01*
X41552714Y-44442095D01*
X41505095Y-44584952D01*
X40933666Y-45156380D01*
X41552714Y-45156380D01*
G04 #@! TO.C,R1*
X42759333Y-45156380D02*
X42426000Y-44680190D01*
X42187904Y-45156380D02*
X42187904Y-44156380D01*
X42568857Y-44156380D01*
X42664095Y-44204000D01*
X42711714Y-44251619D01*
X42759333Y-44346857D01*
X42759333Y-44489714D01*
X42711714Y-44584952D01*
X42664095Y-44632571D01*
X42568857Y-44680190D01*
X42187904Y-44680190D01*
X43711714Y-45156380D02*
X43140285Y-45156380D01*
X43426000Y-45156380D02*
X43426000Y-44156380D01*
X43330761Y-44299238D01*
X43235523Y-44394476D01*
X43140285Y-44442095D01*
G04 #@! TO.C,U1*
X32131095Y-45807380D02*
X32131095Y-46616904D01*
X32178714Y-46712142D01*
X32226333Y-46759761D01*
X32321571Y-46807380D01*
X32512047Y-46807380D01*
X32607285Y-46759761D01*
X32654904Y-46712142D01*
X32702523Y-46616904D01*
X32702523Y-45807380D01*
X33702523Y-46807380D02*
X33131095Y-46807380D01*
X33416809Y-46807380D02*
X33416809Y-45807380D01*
X33321571Y-45950238D01*
X33226333Y-46045476D01*
X33131095Y-46093095D01*
G04 #@! TO.C,REF\002A\002A*
X17208666Y-22550380D02*
X16875333Y-22074190D01*
X16637238Y-22550380D02*
X16637238Y-21550380D01*
X17018190Y-21550380D01*
X17113428Y-21598000D01*
X17161047Y-21645619D01*
X17208666Y-21740857D01*
X17208666Y-21883714D01*
X17161047Y-21978952D01*
X17113428Y-22026571D01*
X17018190Y-22074190D01*
X16637238Y-22074190D01*
X17637238Y-22026571D02*
X17970571Y-22026571D01*
X18113428Y-22550380D02*
X17637238Y-22550380D01*
X17637238Y-21550380D01*
X18113428Y-21550380D01*
X18875333Y-22026571D02*
X18542000Y-22026571D01*
X18542000Y-22550380D02*
X18542000Y-21550380D01*
X19018190Y-21550380D01*
X19542000Y-21550380D02*
X19542000Y-21788476D01*
X19303904Y-21693238D02*
X19542000Y-21788476D01*
X19780095Y-21693238D01*
X19399142Y-21978952D02*
X19542000Y-21788476D01*
X19684857Y-21978952D01*
X20303904Y-21550380D02*
X20303904Y-21788476D01*
X20065809Y-21693238D02*
X20303904Y-21788476D01*
X20542000Y-21693238D01*
X20161047Y-21978952D02*
X20303904Y-21788476D01*
X20446761Y-21978952D01*
X17208666Y-22550380D02*
X16875333Y-22074190D01*
X16637238Y-22550380D02*
X16637238Y-21550380D01*
X17018190Y-21550380D01*
X17113428Y-21598000D01*
X17161047Y-21645619D01*
X17208666Y-21740857D01*
X17208666Y-21883714D01*
X17161047Y-21978952D01*
X17113428Y-22026571D01*
X17018190Y-22074190D01*
X16637238Y-22074190D01*
X17637238Y-22026571D02*
X17970571Y-22026571D01*
X18113428Y-22550380D02*
X17637238Y-22550380D01*
X17637238Y-21550380D01*
X18113428Y-21550380D01*
X18875333Y-22026571D02*
X18542000Y-22026571D01*
X18542000Y-22550380D02*
X18542000Y-21550380D01*
X19018190Y-21550380D01*
X19542000Y-21550380D02*
X19542000Y-21788476D01*
X19303904Y-21693238D02*
X19542000Y-21788476D01*
X19780095Y-21693238D01*
X19399142Y-21978952D02*
X19542000Y-21788476D01*
X19684857Y-21978952D01*
X20303904Y-21550380D02*
X20303904Y-21788476D01*
X20065809Y-21693238D02*
X20303904Y-21788476D01*
X20542000Y-21693238D01*
X20161047Y-21978952D02*
X20303904Y-21788476D01*
X20446761Y-21978952D01*
X48577666Y-22296380D02*
X48244333Y-21820190D01*
X48006238Y-22296380D02*
X48006238Y-21296380D01*
X48387190Y-21296380D01*
X48482428Y-21344000D01*
X48530047Y-21391619D01*
X48577666Y-21486857D01*
X48577666Y-21629714D01*
X48530047Y-21724952D01*
X48482428Y-21772571D01*
X48387190Y-21820190D01*
X48006238Y-21820190D01*
X49006238Y-21772571D02*
X49339571Y-21772571D01*
X49482428Y-22296380D02*
X49006238Y-22296380D01*
X49006238Y-21296380D01*
X49482428Y-21296380D01*
X50244333Y-21772571D02*
X49911000Y-21772571D01*
X49911000Y-22296380D02*
X49911000Y-21296380D01*
X50387190Y-21296380D01*
X50911000Y-21296380D02*
X50911000Y-21534476D01*
X50672904Y-21439238D02*
X50911000Y-21534476D01*
X51149095Y-21439238D01*
X50768142Y-21724952D02*
X50911000Y-21534476D01*
X51053857Y-21724952D01*
X51672904Y-21296380D02*
X51672904Y-21534476D01*
X51434809Y-21439238D02*
X51672904Y-21534476D01*
X51911000Y-21439238D01*
X51530047Y-21724952D02*
X51672904Y-21534476D01*
X51815761Y-21724952D01*
X48577666Y-50109380D02*
X48244333Y-49633190D01*
X48006238Y-50109380D02*
X48006238Y-49109380D01*
X48387190Y-49109380D01*
X48482428Y-49157000D01*
X48530047Y-49204619D01*
X48577666Y-49299857D01*
X48577666Y-49442714D01*
X48530047Y-49537952D01*
X48482428Y-49585571D01*
X48387190Y-49633190D01*
X48006238Y-49633190D01*
X49006238Y-49585571D02*
X49339571Y-49585571D01*
X49482428Y-50109380D02*
X49006238Y-50109380D01*
X49006238Y-49109380D01*
X49482428Y-49109380D01*
X50244333Y-49585571D02*
X49911000Y-49585571D01*
X49911000Y-50109380D02*
X49911000Y-49109380D01*
X50387190Y-49109380D01*
X50911000Y-49109380D02*
X50911000Y-49347476D01*
X50672904Y-49252238D02*
X50911000Y-49347476D01*
X51149095Y-49252238D01*
X50768142Y-49537952D02*
X50911000Y-49347476D01*
X51053857Y-49537952D01*
X51672904Y-49109380D02*
X51672904Y-49347476D01*
X51434809Y-49252238D02*
X51672904Y-49347476D01*
X51911000Y-49252238D01*
X51530047Y-49537952D02*
X51672904Y-49347476D01*
X51815761Y-49537952D01*
X17589666Y-50236380D02*
X17256333Y-49760190D01*
X17018238Y-50236380D02*
X17018238Y-49236380D01*
X17399190Y-49236380D01*
X17494428Y-49284000D01*
X17542047Y-49331619D01*
X17589666Y-49426857D01*
X17589666Y-49569714D01*
X17542047Y-49664952D01*
X17494428Y-49712571D01*
X17399190Y-49760190D01*
X17018238Y-49760190D01*
X18018238Y-49712571D02*
X18351571Y-49712571D01*
X18494428Y-50236380D02*
X18018238Y-50236380D01*
X18018238Y-49236380D01*
X18494428Y-49236380D01*
X19256333Y-49712571D02*
X18923000Y-49712571D01*
X18923000Y-50236380D02*
X18923000Y-49236380D01*
X19399190Y-49236380D01*
X19923000Y-49236380D02*
X19923000Y-49474476D01*
X19684904Y-49379238D02*
X19923000Y-49474476D01*
X20161095Y-49379238D01*
X19780142Y-49664952D02*
X19923000Y-49474476D01*
X20065857Y-49664952D01*
X20684904Y-49236380D02*
X20684904Y-49474476D01*
X20446809Y-49379238D02*
X20684904Y-49474476D01*
X20923000Y-49379238D01*
X20542047Y-49664952D02*
X20684904Y-49474476D01*
X20827761Y-49664952D01*
G04 #@! TD*
M02*
