<?xml version="1.0" standalone="no"?>
 <!DOCTYPE svg PUBLIC "-//W3C//DTD SVG 1.1//EN" 
 "http://www.w3.org/Graphics/SVG/1.1/DTD/svg11.dtd"> 
<svg xmlns="http://www.w3.org/2000/svg" version="1.1" 
    width="29.7002cm" height="21.0007cm" viewBox="0 0 116930 82680 ">
<title>SVG Picture created as active_filter-F.Mask.svg date 2018/08/15 22:04:26 </title>
  <desc>Picture generated by PCBNEW </desc>
<g style="fill:#000000; fill-opacity:1;stroke:#000000; stroke-opacity:1;
stroke-linecap:round; stroke-linejoin:round; "
 transform="translate(0 0) scale(1 1)">
</g>
<g style="fill:#000000; fill-opacity:0.0; 
stroke:#000000; stroke-width:-0.000393701; stroke-opacity:1; 
stroke-linecap:round; stroke-linejoin:round;">
</g>
<g style="fill:#000000; fill-opacity:0.0; 
stroke:#000000; stroke-width:0; stroke-opacity:1; 
stroke-linecap:round; stroke-linejoin:round;">
</g>
<g style="fill:#000000; fill-opacity:1.0; 
stroke:#000000; stroke-width:0; stroke-opacity:1; 
stroke-linecap:round; stroke-linejoin:round;">
<polyline style="fill-rule:evenodd;"
points="13603,12996
13603,12603
14370,12603
14370,12996
13603,12996
" /> 
<polyline style="fill-rule:evenodd;"
points="13603,13496
13603,13103
14370,13103
14370,13496
13603,13496
" /> 
<polyline style="fill-rule:evenodd;"
points="13603,13996
13603,13603
14370,13603
14370,13996
13603,13996
" /> 
<polyline style="fill-rule:evenodd;"
points="13603,14496
13603,14103
14370,14103
14370,14496
13603,14496
" /> 
<polyline style="fill-rule:evenodd;"
points="15729,14496
15729,14103
16496,14103
16496,14496
15729,14496
" /> 
<polyline style="fill-rule:evenodd;"
points="15729,13996
15729,13603
16496,13603
16496,13996
15729,13996
" /> 
<polyline style="fill-rule:evenodd;"
points="15729,13496
15729,13103
16496,13103
16496,13496
15729,13496
" /> 
<polyline style="fill-rule:evenodd;"
points="15729,12996
15729,12603
16496,12603
16496,12996
15729,12996
" /> 
<polyline style="fill-rule:evenodd;"
points="13617,14734
13629,14736
13641,14739
13653,14743
13664,14749
13675,14755
13685,14762
13694,14771
13702,14780
13709,14790
13716,14800
13721,14811
13725,14823
13728,14835
13730,14847
13730,14859
13730,15140
13730,15152
13728,15164
13725,15176
13721,15188
13716,15199
13709,15209
13702,15219
13694,15228
13685,15237
13675,15244
13664,15250
13653,15256
13641,15260
13629,15263
13617,15265
13605,15265
13354,15265
13342,15265
13329,15263
13318,15260
13306,15256
13295,15250
13284,15244
13274,15237
13265,15228
13257,15219
13250,15209
13243,15199
13238,15188
13234,15176
13231,15164
13229,15152
13228,15140
13228,14859
13229,14847
13231,14835
13234,14823
13238,14811
13243,14800
13250,14790
13257,14780
13265,14771
13274,14762
13284,14755
13295,14749
13306,14743
13318,14739
13329,14736
13342,14734
13354,14734
13605,14734
13617,14734
" /> 
<polyline style="fill-rule:evenodd;"
points="14237,14734
14249,14736
14261,14739
14273,14743
14284,14749
14295,14755
14305,14762
14314,14771
14322,14780
14329,14790
14336,14800
14341,14811
14345,14823
14348,14835
14350,14847
14350,14859
14350,15140
14350,15152
14348,15164
14345,15176
14341,15188
14336,15199
14329,15209
14322,15219
14314,15228
14305,15237
14295,15244
14284,15250
14273,15256
14261,15260
14249,15263
14237,15265
14225,15265
13974,15265
13962,15265
13950,15263
13938,15260
13926,15256
13915,15250
13904,15244
13894,15237
13885,15228
13877,15219
13870,15209
13863,15199
13858,15188
13854,15176
13851,15164
13849,15152
13849,15140
13849,14859
13849,14847
13851,14835
13854,14823
13858,14811
13863,14800
13870,14790
13877,14780
13885,14771
13894,14762
13904,14755
13915,14749
13926,14743
13938,14739
13950,14736
13962,14734
13974,14734
14225,14734
14237,14734
" /> 
<polyline style="fill-rule:evenodd;"
points="10617,12234
10629,12236
10641,12239
10653,12243
10664,12249
10675,12255
10685,12262
10694,12271
10702,12280
10709,12290
10716,12300
10721,12311
10725,12323
10728,12335
10730,12347
10730,12359
10730,12640
10730,12652
10728,12664
10725,12676
10721,12688
10716,12699
10709,12709
10702,12719
10694,12728
10685,12737
10675,12744
10664,12750
10653,12756
10641,12760
10629,12763
10617,12765
10605,12765
10354,12765
10342,12765
10329,12763
10318,12760
10306,12756
10295,12750
10284,12744
10274,12737
10265,12728
10257,12719
10250,12709
10243,12699
10238,12688
10234,12676
10231,12664
10229,12652
10228,12640
10228,12359
10229,12347
10231,12335
10234,12323
10238,12311
10243,12300
10250,12290
10257,12280
10265,12271
10274,12262
10284,12255
10295,12249
10306,12243
10318,12239
10329,12236
10342,12234
10354,12234
10605,12234
10617,12234
" /> 
<polyline style="fill-rule:evenodd;"
points="11237,12234
11249,12236
11261,12239
11273,12243
11284,12249
11295,12255
11305,12262
11314,12271
11322,12280
11329,12290
11336,12300
11341,12311
11345,12323
11348,12335
11350,12347
11350,12359
11350,12640
11350,12652
11348,12664
11345,12676
11341,12688
11336,12699
11329,12709
11322,12719
11314,12728
11305,12737
11295,12744
11284,12750
11273,12756
11261,12760
11249,12763
11237,12765
11225,12765
10974,12765
10962,12765
10950,12763
10938,12760
10926,12756
10915,12750
10904,12744
10894,12737
10885,12728
10877,12719
10870,12709
10863,12699
10858,12688
10854,12676
10851,12664
10849,12652
10849,12640
10849,12359
10849,12347
10851,12335
10854,12323
10858,12311
10863,12300
10870,12290
10877,12280
10885,12271
10894,12262
10904,12255
10915,12249
10926,12243
10938,12239
10950,12236
10962,12234
10974,12234
11225,12234
11237,12234
" /> 
<polyline style="fill-rule:evenodd;"
points="16027,15834
16039,15836
16051,15839
16063,15843
16074,15849
16085,15855
16095,15862
16104,15871
16112,15880
16119,15890
16126,15900
16131,15911
16135,15923
16138,15935
16140,15947
16140,15959
16140,16240
16140,16252
16138,16264
16135,16276
16131,16288
16126,16299
16119,16309
16112,16319
16104,16328
16095,16337
16085,16344
16074,16350
16063,16356
16051,16360
16039,16363
16027,16365
16015,16365
15764,16365
15752,16365
15739,16363
15728,16360
15716,16356
15705,16350
15694,16344
15684,16337
15675,16328
15667,16319
15660,16309
15653,16299
15648,16288
15644,16276
15641,16264
15639,16252
15638,16240
15638,15959
15639,15947
15641,15935
15644,15923
15648,15911
15653,15900
15660,15890
15667,15880
15675,15871
15684,15862
15694,15855
15705,15849
15716,15843
15728,15839
15739,15836
15752,15834
15764,15834
16015,15834
16027,15834
" /> 
<polyline style="fill-rule:evenodd;"
points="16647,15834
16660,15836
16671,15839
16683,15843
16694,15849
16705,15855
16715,15862
16724,15871
16732,15880
16739,15890
16746,15900
16751,15911
16755,15923
16758,15935
16760,15947
16761,15959
16761,16240
16760,16252
16758,16264
16755,16276
16751,16288
16746,16299
16739,16309
16732,16319
16724,16328
16715,16337
16705,16344
16694,16350
16683,16356
16671,16360
16660,16363
16647,16365
16635,16365
16384,16365
16372,16365
16360,16363
16348,16360
16336,16356
16325,16350
16314,16344
16304,16337
16295,16328
16287,16319
16280,16309
16273,16299
16268,16288
16264,16276
16261,16264
16259,16252
16259,16240
16259,15959
16259,15947
16261,15935
16264,15923
16268,15911
16273,15900
16280,15890
16287,15880
16295,15871
16304,15862
16314,15855
16325,15849
16336,15843
16348,15839
16360,15836
16372,15834
16384,15834
16635,15834
16647,15834
" /> 
<polyline style="fill-rule:evenodd;"
points="14169,9606
14169,10393
12830,10393
12830,9606
14169,9606
" /> 
<polyline style="fill-rule:evenodd;"
points="12437,9606
12437,10393
11098,10393
11098,9606
12437,9606
" /> 
<polyline style="fill-rule:evenodd;"
points="16137,11734
16149,11736
16161,11739
16173,11743
16184,11749
16195,11755
16205,11762
16214,11771
16222,11780
16229,11790
16236,11800
16241,11811
16245,11823
16248,11835
16250,11847
16250,11859
16250,12140
16250,12152
16248,12164
16245,12176
16241,12188
16236,12199
16229,12209
16222,12219
16214,12228
16205,12237
16195,12244
16184,12250
16173,12256
16161,12260
16149,12263
16137,12265
16125,12265
15874,12265
15862,12265
15850,12263
15838,12260
15826,12256
15815,12250
15804,12244
15794,12237
15785,12228
15777,12219
15770,12209
15763,12199
15758,12188
15754,12176
15751,12164
15749,12152
15749,12140
15749,11859
15749,11847
15751,11835
15754,11823
15758,11811
15763,11800
15770,11790
15777,11780
15785,11771
15794,11762
15804,11755
15815,11749
15826,11743
15838,11739
15850,11736
15862,11734
15874,11734
16125,11734
16137,11734
" /> 
<polyline style="fill-rule:evenodd;"
points="15517,11734
15529,11736
15541,11739
15553,11743
15564,11749
15575,11755
15585,11762
15594,11771
15602,11780
15609,11790
15616,11800
15621,11811
15625,11823
15628,11835
15630,11847
15630,11859
15630,12140
15630,12152
15628,12164
15625,12176
15621,12188
15616,12199
15609,12209
15602,12219
15594,12228
15585,12237
15575,12244
15564,12250
15553,12256
15541,12260
15529,12263
15517,12265
15505,12265
15254,12265
15242,12265
15229,12263
15218,12260
15206,12256
15195,12250
15184,12244
15174,12237
15165,12228
15157,12219
15150,12209
15143,12199
15138,12188
15134,12176
15131,12164
15129,12152
15128,12140
15128,11859
15129,11847
15131,11835
15134,11823
15138,11811
15143,11800
15150,11790
15157,11780
15165,11771
15174,11762
15184,11755
15195,11749
15206,11743
15218,11739
15229,11736
15242,11734
15254,11734
15505,11734
15517,11734
" /> 
<polyline style="fill-rule:evenodd;"
points="16157,11034
16170,11036
16181,11039
16193,11043
16204,11049
16215,11055
16225,11062
16234,11071
16242,11080
16249,11090
16256,11100
16261,11111
16265,11123
16268,11135
16270,11147
16271,11159
16271,11440
16270,11452
16268,11464
16265,11476
16261,11488
16256,11499
16249,11509
16242,11519
16234,11528
16225,11537
16215,11544
16204,11550
16193,11556
16181,11560
16170,11563
16157,11565
16145,11565
15894,11565
15882,11565
15870,11563
15858,11560
15846,11556
15835,11550
15824,11544
15814,11537
15805,11528
15797,11519
15790,11509
15783,11499
15778,11488
15774,11476
15771,11464
15769,11452
15769,11440
15769,11159
15769,11147
15771,11135
15774,11123
15778,11111
15783,11100
15790,11090
15797,11080
15805,11071
15814,11062
15824,11055
15835,11049
15846,11043
15858,11039
15870,11036
15882,11034
15894,11034
16145,11034
16157,11034
" /> 
<polyline style="fill-rule:evenodd;"
points="15537,11034
15549,11036
15561,11039
15573,11043
15584,11049
15595,11055
15605,11062
15614,11071
15622,11080
15629,11090
15636,11100
15641,11111
15645,11123
15648,11135
15650,11147
15650,11159
15650,11440
15650,11452
15648,11464
15645,11476
15641,11488
15636,11499
15629,11509
15622,11519
15614,11528
15605,11537
15595,11544
15584,11550
15573,11556
15561,11560
15549,11563
15537,11565
15525,11565
15274,11565
15262,11565
15250,11563
15238,11560
15226,11556
15215,11550
15204,11544
15194,11537
15185,11528
15177,11519
15170,11509
15163,11499
15158,11488
15154,11476
15151,11464
15149,11452
15149,11440
15149,11159
15149,11147
15151,11135
15154,11123
15158,11111
15163,11100
15170,11090
15177,11080
15185,11071
15194,11062
15204,11055
15215,11049
15226,11043
15238,11039
15250,11036
15262,11034
15274,11034
15525,11034
15537,11034
" /> 
<polyline style="fill-rule:evenodd;"
points="14757,11734
14770,11736
14781,11739
14793,11743
14804,11749
14815,11755
14825,11762
14834,11771
14842,11780
14849,11790
14856,11800
14861,11811
14865,11823
14868,11835
14870,11847
14871,11859
14871,12140
14870,12152
14868,12164
14865,12176
14861,12188
14856,12199
14849,12209
14842,12219
14834,12228
14825,12237
14815,12244
14804,12250
14793,12256
14781,12260
14770,12263
14757,12265
14745,12265
14494,12265
14482,12265
14470,12263
14458,12260
14446,12256
14435,12250
14424,12244
14414,12237
14405,12228
14397,12219
14390,12209
14383,12199
14378,12188
14374,12176
14371,12164
14369,12152
14369,12140
14369,11859
14369,11847
14371,11835
14374,11823
14378,11811
14383,11800
14390,11790
14397,11780
14405,11771
14414,11762
14424,11755
14435,11749
14446,11743
14458,11739
14470,11736
14482,11734
14494,11734
14745,11734
14757,11734
" /> 
<polyline style="fill-rule:evenodd;"
points="14137,11734
14149,11736
14161,11739
14173,11743
14184,11749
14195,11755
14205,11762
14214,11771
14222,11780
14229,11790
14236,11800
14241,11811
14245,11823
14248,11835
14250,11847
14250,11859
14250,12140
14250,12152
14248,12164
14245,12176
14241,12188
14236,12199
14229,12209
14222,12219
14214,12228
14205,12237
14195,12244
14184,12250
14173,12256
14161,12260
14149,12263
14137,12265
14125,12265
13874,12265
13862,12265
13850,12263
13838,12260
13826,12256
13815,12250
13804,12244
13794,12237
13785,12228
13777,12219
13770,12209
13763,12199
13758,12188
13754,12176
13751,12164
13749,12152
13749,12140
13749,11859
13749,11847
13751,11835
13754,11823
13758,11811
13763,11800
13770,11790
13777,11780
13785,11771
13794,11762
13804,11755
13815,11749
13826,11743
13838,11739
13850,11736
13862,11734
13874,11734
14125,11734
14137,11734
" /> 
<polyline style="fill-rule:evenodd;"
points="7427,11775
7427,11224
8572,11224
8572,11775
7427,11775
" /> 
<polyline style="fill-rule:evenodd;"
points="8730,10775
8730,10224
9875,10224
9875,10775
8730,10775
" /> 
<polyline style="fill-rule:evenodd;"
points="8730,12775
8730,12224
9875,12224
9875,12775
8730,12775
" /> 
<polyline style="fill-rule:evenodd;"
points="18327,12775
18327,12224
19472,12224
19472,12775
18327,12775
" /> 
<polyline style="fill-rule:evenodd;"
points="19630,11775
19630,11224
20775,11224
20775,11775
19630,11775
" /> 
<polyline style="fill-rule:evenodd;"
points="11252,13949
11264,13951
11276,13954
11288,13958
11299,13963
11309,13970
11319,13977
11328,13985
11337,13994
11344,14004
11350,14015
11356,14026
11360,14038
11363,14050
11365,14062
11365,14074
11365,14325
11365,14337
11363,14349
11360,14361
11356,14373
11350,14384
11344,14395
11337,14405
11328,14414
11319,14422
11309,14429
11299,14436
11288,14441
11276,14445
11264,14448
11252,14450
11240,14450
10959,14450
10947,14450
10935,14448
10923,14445
10911,14441
10900,14436
10890,14429
10880,14422
10871,14414
10862,14405
10855,14395
10849,14384
10843,14373
10839,14361
10836,14349
10834,14337
10834,14325
10834,14074
10834,14062
10836,14050
10839,14038
10843,14026
10849,14015
10855,14004
10862,13994
10871,13985
10880,13977
10890,13970
10900,13963
10911,13958
10923,13954
10935,13951
10947,13949
10959,13949
11240,13949
11252,13949
" /> 
<polyline style="fill-rule:evenodd;"
points="11252,13329
11264,13331
11276,13334
11288,13338
11299,13343
11309,13350
11319,13357
11328,13365
11337,13374
11344,13384
11350,13395
11356,13406
11360,13418
11363,13429
11365,13442
11365,13454
11365,13705
11365,13717
11363,13729
11360,13741
11356,13753
11350,13764
11344,13775
11337,13785
11328,13794
11319,13802
11309,13809
11299,13816
11288,13821
11276,13825
11264,13828
11252,13830
11240,13830
10959,13830
10947,13830
10935,13828
10923,13825
10911,13821
10900,13816
10890,13809
10880,13802
10871,13794
10862,13785
10855,13775
10849,13764
10843,13753
10839,13741
10836,13729
10834,13717
10834,13705
10834,13454
10834,13442
10836,13429
10839,13418
10843,13406
10849,13395
10855,13384
10862,13374
10871,13365
10880,13357
10890,13350
10900,13343
10911,13338
10923,13334
10935,13331
10947,13329
10959,13328
11240,13328
11252,13329
" /> 
<polyline style="fill-rule:evenodd;"
points="11817,14734
11829,14736
11841,14739
11853,14743
11864,14749
11875,14755
11885,14762
11894,14771
11902,14780
11909,14790
11916,14800
11921,14811
11925,14823
11928,14835
11930,14847
11930,14859
11930,15140
11930,15152
11928,15164
11925,15176
11921,15188
11916,15199
11909,15209
11902,15219
11894,15228
11885,15237
11875,15244
11864,15250
11853,15256
11841,15260
11829,15263
11817,15265
11805,15265
11554,15265
11542,15265
11529,15263
11518,15260
11506,15256
11495,15250
11484,15244
11474,15237
11465,15228
11457,15219
11450,15209
11443,15199
11438,15188
11434,15176
11431,15164
11429,15152
11428,15140
11428,14859
11429,14847
11431,14835
11434,14823
11438,14811
11443,14800
11450,14790
11457,14780
11465,14771
11474,14762
11484,14755
11495,14749
11506,14743
11518,14739
11529,14736
11542,14734
11554,14734
11805,14734
11817,14734
" /> 
<polyline style="fill-rule:evenodd;"
points="12437,14734
12449,14736
12461,14739
12473,14743
12484,14749
12495,14755
12505,14762
12514,14771
12522,14780
12529,14790
12536,14800
12541,14811
12545,14823
12548,14835
12550,14847
12550,14859
12550,15140
12550,15152
12548,15164
12545,15176
12541,15188
12536,15199
12529,15209
12522,15219
12514,15228
12505,15237
12495,15244
12484,15250
12473,15256
12461,15260
12449,15263
12437,15265
12425,15265
12174,15265
12162,15265
12150,15263
12138,15260
12126,15256
12115,15250
12104,15244
12094,15237
12085,15228
12077,15219
12070,15209
12063,15199
12058,15188
12054,15176
12051,15164
12049,15152
12049,15140
12049,14859
12049,14847
12051,14835
12054,14823
12058,14811
12063,14800
12070,14790
12077,14780
12085,14771
12094,14762
12104,14755
12115,14749
12126,14743
12138,14739
12150,14736
12162,14734
12174,14734
12425,14734
12437,14734
" /> 
<polyline style="fill-rule:evenodd;"
points="15657,14734
15670,14736
15681,14739
15693,14743
15704,14749
15715,14755
15725,14762
15734,14771
15742,14780
15749,14790
15756,14800
15761,14811
15765,14823
15768,14835
15770,14847
15771,14859
15771,15140
15770,15152
15768,15164
15765,15176
15761,15188
15756,15199
15749,15209
15742,15219
15734,15228
15725,15237
15715,15244
15704,15250
15693,15256
15681,15260
15670,15263
15657,15265
15645,15265
15394,15265
15382,15265
15370,15263
15358,15260
15346,15256
15335,15250
15324,15244
15314,15237
15305,15228
15297,15219
15290,15209
15283,15199
15278,15188
15274,15176
15271,15164
15269,15152
15269,15140
15269,14859
15269,14847
15271,14835
15274,14823
15278,14811
15283,14800
15290,14790
15297,14780
15305,14771
15314,14762
15324,14755
15335,14749
15346,14743
15358,14739
15370,14736
15382,14734
15394,14734
15645,14734
15657,14734
" /> 
<polyline style="fill-rule:evenodd;"
points="15037,14734
15049,14736
15061,14739
15073,14743
15084,14749
15095,14755
15105,14762
15114,14771
15122,14780
15129,14790
15136,14800
15141,14811
15145,14823
15148,14835
15150,14847
15150,14859
15150,15140
15150,15152
15148,15164
15145,15176
15141,15188
15136,15199
15129,15209
15122,15219
15114,15228
15105,15237
15095,15244
15084,15250
15073,15256
15061,15260
15049,15263
15037,15265
15025,15265
14774,15265
14762,15265
14750,15263
14738,15260
14726,15256
14715,15250
14704,15244
14694,15237
14685,15228
14677,15219
14670,15209
14663,15199
14658,15188
14654,15176
14651,15164
14649,15152
14649,15140
14649,14859
14649,14847
14651,14835
14654,14823
14658,14811
14663,14800
14670,14790
14677,14780
14685,14771
14694,14762
14704,14755
14715,14749
14726,14743
14738,14739
14750,14736
14762,14734
14774,14734
15025,14734
15037,14734
" /> 
<polyline style="fill-rule:evenodd;"
points="13252,11149
13264,11151
13276,11154
13288,11158
13299,11163
13309,11170
13319,11177
13328,11185
13337,11194
13344,11204
13350,11215
13356,11226
13360,11238
13363,11250
13365,11262
13365,11274
13365,11525
13365,11537
13363,11549
13360,11561
13356,11573
13350,11584
13344,11595
13337,11605
13328,11614
13319,11622
13309,11629
13299,11636
13288,11641
13276,11645
13264,11648
13252,11650
13240,11650
12959,11650
12947,11650
12935,11648
12923,11645
12911,11641
12900,11636
12890,11629
12880,11622
12871,11614
12862,11605
12855,11595
12849,11584
12843,11573
12839,11561
12836,11549
12834,11537
12834,11525
12834,11274
12834,11262
12836,11250
12839,11238
12843,11226
12849,11215
12855,11204
12862,11194
12871,11185
12880,11177
12890,11170
12900,11163
12911,11158
12923,11154
12935,11151
12947,11149
12959,11149
13240,11149
13252,11149
" /> 
<polyline style="fill-rule:evenodd;"
points="13252,11769
13264,11771
13276,11774
13288,11778
13299,11783
13309,11790
13319,11797
13328,11805
13337,11814
13344,11824
13350,11835
13356,11846
13360,11858
13363,11870
13365,11882
13365,11894
13365,12145
13365,12157
13363,12170
13360,12181
13356,12193
13350,12204
13344,12215
13337,12225
13328,12234
13319,12242
13309,12249
13299,12256
13288,12261
13276,12265
13264,12268
13252,12270
13240,12271
12959,12271
12947,12270
12935,12268
12923,12265
12911,12261
12900,12256
12890,12249
12880,12242
12871,12234
12862,12225
12855,12215
12849,12204
12843,12193
12839,12181
12836,12170
12834,12157
12834,12145
12834,11894
12834,11882
12836,11870
12839,11858
12843,11846
12849,11835
12855,11824
12862,11814
12871,11805
12880,11797
12890,11790
12900,11783
12911,11778
12923,11774
12935,11771
12947,11769
12959,11769
13240,11769
13252,11769
" /> 
<polyline style="fill-rule:evenodd;"
points="13247,14034
13260,14036
13271,14039
13283,14043
13294,14049
13305,14055
13315,14062
13324,14071
13332,14080
13339,14090
13346,14100
13351,14111
13355,14123
13358,14135
13360,14147
13361,14159
13361,14440
13360,14452
13358,14464
13355,14476
13351,14488
13346,14499
13339,14509
13332,14519
13324,14528
13315,14537
13305,14544
13294,14550
13283,14556
13271,14560
13260,14563
13247,14565
13235,14565
12984,14565
12972,14565
12960,14563
12948,14560
12936,14556
12925,14550
12914,14544
12904,14537
12895,14528
12887,14519
12880,14509
12873,14499
12868,14488
12864,14476
12861,14464
12859,14452
12859,14440
12859,14159
12859,14147
12861,14135
12864,14123
12868,14111
12873,14100
12880,14090
12887,14080
12895,14071
12904,14062
12914,14055
12925,14049
12936,14043
12948,14039
12960,14036
12972,14034
12984,14034
13235,14034
13247,14034
" /> 
<polyline style="fill-rule:evenodd;"
points="12627,14034
12639,14036
12651,14039
12663,14043
12674,14049
12685,14055
12695,14062
12704,14071
12712,14080
12719,14090
12726,14100
12731,14111
12735,14123
12738,14135
12740,14147
12740,14159
12740,14440
12740,14452
12738,14464
12735,14476
12731,14488
12726,14499
12719,14509
12712,14519
12704,14528
12695,14537
12685,14544
12674,14550
12663,14556
12651,14560
12639,14563
12627,14565
12615,14565
12364,14565
12352,14565
12339,14563
12328,14560
12316,14556
12305,14550
12294,14544
12284,14537
12275,14528
12267,14519
12260,14509
12253,14499
12248,14488
12244,14476
12241,14464
12239,14452
12238,14440
12238,14159
12239,14147
12241,14135
12244,14123
12248,14111
12253,14100
12260,14090
12267,14080
12275,14071
12284,14062
12294,14055
12305,14049
12316,14043
12328,14039
12339,14036
12352,14034
12364,14034
12615,14034
12627,14034
" /> 
<polyline style="fill-rule:evenodd;"
points="19748,14881
19748,14212
20417,14212
20417,14881
19748,14881
" /> 
<polyline style="fill-rule:evenodd;"
points="17444,15334
17444,14665
18389,14665
18389,15334
17444,15334
" /> 
<polyline style="fill-rule:evenodd;"
points="19748,15787
19748,15118
20417,15118
20417,15787
19748,15787
" /> 
</g> 
</svg>
