<?xml version="1.0" standalone="no"?>
 <!DOCTYPE svg PUBLIC "-//W3C//DTD SVG 1.1//EN" 
 "http://www.w3.org/Graphics/SVG/1.1/DTD/svg11.dtd"> 
<svg xmlns="http://www.w3.org/2000/svg" version="1.1" 
    width="29.7002cm" height="21.0007cm" viewBox="0 0 116930 82680 ">
<title>SVG Picture created as active_filter-F.SilkS.svg date 2018/08/15 22:04:26 </title>
  <desc>Picture generated by PCBNEW </desc>
<g style="fill:#000000; fill-opacity:1;stroke:#000000; stroke-opacity:1;
stroke-linecap:round; stroke-linejoin:round; "
 transform="translate(0 0) scale(1 1)">
</g>
<g style="fill:#000000; fill-opacity:0.0; 
stroke:#000000; stroke-width:-0.000393701; stroke-opacity:1; 
stroke-linecap:round; stroke-linejoin:round;">
</g>
<g style="fill:#000000; fill-opacity:0.0; 
stroke:#000000; stroke-width:59.0551; stroke-opacity:1; 
stroke-linecap:round; stroke-linejoin:round;">
<path d="M14233 12536
L14233 12555
" />
<path d="M15866 12536
L15866 12593
" />
<path d="M15866 14563
L15866 14506
" />
<path d="M14233 14563
L14233 14506
" />
<path d="M14233 12536
L15866 12536
" />
<path d="M14233 14563
L15866 14563
" />
<path d="M14233 12555
L13681 12555
" />
</g>
<g style="fill:#000000; fill-opacity:0.0; 
stroke:#000000; stroke-width:47.2441; stroke-opacity:1; 
stroke-linecap:round; stroke-linejoin:round;">
<path d="M13725 14799
L13854 14799
" />
<path d="M13725 15200
L13854 15200
" />
<path d="M10854 12299
L10725 12299
" />
<path d="M10854 12700
L10725 12700
" />
<path d="M16264 15899
L16135 15899
" />
<path d="M16264 16300
L16135 16300
" />
<path d="M11547 8913
L11547 9582
" />
<path d="M11547 11086
L11547 10417
" />
<path d="M13301 11086
L11547 11086
" />
<path d="M13301 8913
L11547 8913
" />
<path d="M13720 9332
L13720 9582
" />
<path d="M13720 10667
L13720 10417
" />
<path d="M13720 10667
L13301 11086
" />
<path d="M13720 9332
L13301 8913
" />
<path d="M14061 10663
L13814 10663
" />
<path d="M13937 10786
L13937 10540
" />
<path d="M15754 12200
L15625 12200
" />
<path d="M15754 11799
L15625 11799
" />
<path d="M15774 11500
L15645 11500
" />
<path d="M15774 11099
L15645 11099
" />
<path d="M14245 12200
L14374 12200
" />
<path d="M14245 11799
L14374 11799
" />
<path d="M8127 9976
L9175 9976
" />
<path d="M8127 13023
L9175 13023
" />
<path d="M9175 10799
L9175 12200
" />
<path d="M8127 9976
L8127 11200
" />
<path d="M9175 10200
L9773 10200
" />
<path d="M9175 9976
L9175 10200
" />
<path d="M8127 12799
L8127 13023
" />
<path d="M8127 11799
L8127 13023
" />
<path d="M19027 10976
L20075 10976
" />
<path d="M19027 13023
L20075 13023
" />
<path d="M20075 11799
L20075 13023
" />
<path d="M19027 10976
L19027 12200
" />
<path d="M20075 11200
L20673 11200
" />
<path d="M20075 10976
L20075 11200
" />
<path d="M19027 12799
L19027 13023
" />
<path d="M10899 13825
L10899 13954
" />
<path d="M11300 13825
L11300 13954
" />
<path d="M11925 14799
L12054 14799
" />
<path d="M11925 15200
L12054 15200
" />
<path d="M15274 15200
L15145 15200
" />
<path d="M15274 14799
L15145 14799
" />
<path d="M13300 11645
L13300 11774
" />
<path d="M12899 11645
L12899 11774
" />
<path d="M12735 14500
L12864 14500
" />
<path d="M12735 14099
L12864 14099
" />
<path d="M17968 13968
L20031 13968
" />
<path d="M17968 16031
L20031 16031
" />
<path d="M17968 13968
L17968 14649
" />
<path d="M17968 15350
L17968 16031
" />
<path d="M20031 13968
L20031 14197
" />
<path d="M20031 14897
L20031 15102
" />
<path d="M20031 15803
L20031 16031
" />
</g>
<g style="fill:#000000; fill-opacity:0.0; 
stroke:#000000; stroke-width:59.0551; stroke-opacity:1; 
stroke-linecap:round; stroke-linejoin:round;">
<path d="M16250 14834
L16250 15153
L16268 15190
L16287 15209
L16325 15228
L16400 15228
L16437 15209
L16456 15190
L16475 15153
L16475 14834
" />
<path d="M16868 15228
L16643 15228
" />
<path d="M16756 15228
L16756 14834
L16718 14890
L16681 14928
L16643 14946
" />
<path d="M13734 15740
L13715 15759
L13659 15778
L13621 15778
L13565 15759
L13528 15721
L13509 15684
L13490 15609
L13490 15553
L13509 15478
L13528 15440
L13565 15403
L13621 15384
L13659 15384
L13715 15403
L13734 15421
" />
<path d="M13884 15421
L13903 15403
L13940 15384
L14034 15384
L14071 15403
L14090 15421
L14109 15459
L14109 15496
L14090 15553
L13865 15778
L14109 15778
" />
<path d="M10734 12040
L10715 12059
L10659 12078
L10621 12078
L10565 12059
L10528 12021
L10509 11984
L10490 11909
L10490 11853
L10509 11778
L10528 11740
L10565 11703
L10621 11684
L10659 11684
L10715 11703
L10734 11721
" />
<path d="M10978 11684
L11015 11684
L11053 11703
L11071 11721
L11090 11759
L11109 11834
L11109 11928
L11090 12003
L11071 12040
L11053 12059
L11015 12078
L10978 12078
L10940 12059
L10921 12040
L10903 12003
L10884 11928
L10884 11834
L10903 11759
L10921 11721
L10940 11703
L10978 11684
" />
<path d="M16134 16803
L16115 16822
L16059 16841
L16021 16841
L15965 16822
L15928 16784
L15909 16747
L15890 16672
L15890 16616
L15909 16541
L15928 16503
L15965 16466
L16021 16447
L16059 16447
L16115 16466
L16134 16484
" />
<path d="M16509 16841
L16284 16841
" />
<path d="M16396 16841
L16396 16447
L16359 16503
L16321 16541
L16284 16559
" />
<path d="M10346 9340
L10328 9359
L10271 9378
L10234 9378
L10178 9359
L10140 9321
L10121 9284
L10103 9209
L10103 9153
L10121 9078
L10140 9040
L10178 9003
L10234 8984
L10271 8984
L10328 9003
L10346 9021
" />
<path d="M10721 9378
L10496 9378
" />
<path d="M10609 9378
L10609 8984
L10571 9040
L10534 9078
L10496 9096
" />
<path d="M10965 8984
L11003 8984
L11040 9003
L11059 9021
L11078 9059
L11096 9134
L11096 9228
L11078 9303
L11059 9340
L11040 9359
L11003 9378
L10965 9378
L10928 9359
L10909 9340
L10890 9303
L10871 9228
L10871 9134
L10890 9059
L10909 9021
L10928 9003
L10965 8984
" />
<path d="M16646 12140
L16628 12159
L16571 12178
L16534 12178
L16478 12159
L16440 12121
L16421 12084
L16403 12009
L16403 11953
L16421 11878
L16440 11840
L16478 11803
L16534 11784
L16571 11784
L16628 11803
L16646 11821
" />
<path d="M17021 12178
L16796 12178
" />
<path d="M16909 12178
L16909 11784
L16871 11840
L16834 11878
L16796 11896
" />
<path d="M17396 12178
L17171 12178
" />
<path d="M17284 12178
L17284 11784
L17246 11840
L17209 11878
L17171 11896
" />
<path d="M15446 10840
L15428 10859
L15371 10878
L15334 10878
L15278 10859
L15240 10821
L15221 10784
L15203 10709
L15203 10653
L15221 10578
L15240 10540
L15278 10503
L15334 10484
L15371 10484
L15428 10503
L15446 10521
" />
<path d="M15821 10878
L15596 10878
" />
<path d="M15709 10878
L15709 10484
L15671 10540
L15634 10578
L15596 10596
" />
<path d="M15971 10521
L15990 10503
L16028 10484
L16121 10484
L16159 10503
L16178 10521
L16196 10559
L16196 10596
L16178 10653
L15953 10878
L16196 10878
" />
<path d="M14056 11590
L14038 11609
L13981 11628
L13944 11628
L13888 11609
L13850 11571
L13831 11534
L13813 11459
L13813 11403
L13831 11328
L13850 11290
L13888 11253
L13944 11234
L13981 11234
L14038 11253
L14056 11271
" />
<path d="M14431 11628
L14206 11628
" />
<path d="M14319 11628
L14319 11234
L14281 11290
L14244 11328
L14206 11346
" />
<path d="M14563 11234
L14806 11234
L14675 11384
L14731 11384
L14769 11403
L14788 11421
L14806 11459
L14806 11553
L14788 11590
L14769 11609
L14731 11628
L14619 11628
L14581 11609
L14563 11590
" />
<path d="M8520 9367
L8520 9648
L8501 9704
L8464 9742
L8407 9760
L8370 9760
" />
<path d="M8914 9760
L8689 9760
" />
<path d="M8801 9760
L8801 9367
L8764 9423
L8726 9460
L8689 9479
" />
<path d="M19420 10367
L19420 10648
L19401 10704
L19364 10742
L19307 10760
L19270 10760
" />
<path d="M19589 10404
L19607 10385
L19645 10367
L19739 10367
L19776 10385
L19795 10404
L19814 10442
L19814 10479
L19795 10535
L19570 10760
L19814 10760
" />
<path d="M10334 14078
L10203 13890
" />
<path d="M10109 14078
L10109 13684
L10259 13684
L10296 13703
L10315 13721
L10334 13759
L10334 13815
L10315 13853
L10296 13871
L10259 13890
L10109 13890
" />
<path d="M10709 14078
L10484 14078
" />
<path d="M10596 14078
L10596 13684
L10559 13740
L10521 13778
L10484 13796
" />
<path d="M11934 15778
L11803 15590
" />
<path d="M11709 15778
L11709 15384
L11859 15384
L11896 15403
L11915 15421
L11934 15459
L11934 15515
L11915 15553
L11896 15571
L11859 15590
L11709 15590
" />
<path d="M12084 15421
L12103 15403
L12140 15384
L12234 15384
L12271 15403
L12290 15421
L12309 15459
L12309 15496
L12290 15553
L12065 15778
L12309 15778
" />
<path d="M15144 15778
L15013 15590
" />
<path d="M14919 15778
L14919 15384
L15069 15384
L15106 15403
L15125 15421
L15144 15459
L15144 15515
L15125 15553
L15106 15571
L15069 15590
L14919 15590
" />
<path d="M15275 15384
L15519 15384
L15388 15534
L15444 15534
L15481 15553
L15500 15571
L15519 15609
L15519 15703
L15500 15740
L15481 15759
L15444 15778
L15331 15778
L15294 15759
L15275 15740
" />
<path d="M12334 11878
L12203 11690
" />
<path d="M12109 11878
L12109 11484
L12259 11484
L12296 11503
L12315 11521
L12334 11559
L12334 11615
L12315 11653
L12296 11671
L12259 11690
L12109 11690
" />
<path d="M12690 11484
L12503 11484
L12484 11671
L12503 11653
L12540 11634
L12634 11634
L12671 11653
L12690 11671
L12709 11709
L12709 11803
L12690 11840
L12671 11859
L12634 11878
L12540 11878
L12503 11859
L12484 11840
" />
<path d="M12634 13878
L12503 13690
" />
<path d="M12409 13878
L12409 13484
L12559 13484
L12596 13503
L12615 13521
L12634 13559
L12634 13615
L12615 13653
L12596 13671
L12559 13690
L12409 13690
" />
<path d="M12971 13484
L12896 13484
L12859 13503
L12840 13521
L12803 13578
L12784 13653
L12784 13803
L12803 13840
L12821 13859
L12859 13878
L12934 13878
L12971 13859
L12990 13840
L13009 13803
L13009 13709
L12990 13671
L12971 13653
L12934 13634
L12859 13634
L12821 13653
L12803 13671
L12784 13709
" />
<path d="M18696 13701
L18565 13514
" />
<path d="M18471 13701
L18471 13308
L18621 13308
L18659 13326
L18678 13345
L18696 13383
L18696 13439
L18678 13476
L18659 13495
L18621 13514
L18471 13514
" />
<path d="M18809 13308
L18940 13701
L19071 13308
" />
<path d="M19371 13439
L19371 13701
" />
<path d="M19277 13289
L19184 13570
L19427 13570
" />
</g> 
</svg>
