<?xml version="1.0" standalone="no"?>
 <!DOCTYPE svg PUBLIC "-//W3C//DTD SVG 1.1//EN" 
 "http://www.w3.org/Graphics/SVG/1.1/DTD/svg11.dtd"> 
<svg xmlns="http://www.w3.org/2000/svg" version="1.1" 
    width="29.7002cm" height="21.0007cm" viewBox="0 0 116930 82680 ">
<title>SVG Picture created as active_filter-F.Cu.svg date 2018/09/06 16:24:36 </title>
  <desc>Picture generated by PCBNEW </desc>
<g style="fill:#000000; fill-opacity:1;stroke:#000000; stroke-opacity:1;
stroke-linecap:round; stroke-linejoin:round; "
 transform="translate(0 0) scale(1 1)">
</g>
<g style="fill:#000000; fill-opacity:0.0; 
stroke:#000000; stroke-width:-0.000393701; stroke-opacity:1; 
stroke-linecap:round; stroke-linejoin:round;">
</g>
<g style="fill:#000000; fill-opacity:0.0; 
stroke:#000000; stroke-width:118.11; stroke-opacity:1; 
stroke-linecap:round; stroke-linejoin:round;">
<path d="M15056 9567
L14719 9567
" />
<path d="M14887 9567
L14887 8976
L14831 9060
L14775 9117
L14719 9145
" />
<path d="M15309 9567
L15309 8976
" />
<path d="M15365 9342
L15534 9567
" />
<path d="M15534 9173
L15309 9398
" />
<path d="M15787 9567
L15787 8976
" />
<path d="M15787 9257
L16125 9257
" />
<path d="M16125 9567
L16125 8976
" />
<path d="M16350 9173
L16659 9173
L16350 9567
L16659 9567
" />
<path d="M17250 8976
L17587 8976
" />
<path d="M17418 9567
L17418 8976
" />
<path d="M17784 9567
L17784 9173
" />
<path d="M17784 8976
L17756 9004
L17784 9032
L17812 9004
L17784 8976
L17784 9032
" />
<path d="M18290 9539
L18234 9567
L18121 9567
L18065 9539
L18037 9482
L18037 9257
L18065 9201
L18121 9173
L18234 9173
L18290 9201
L18318 9257
L18318 9314
L18037 9370
" />
<path d="M18487 9173
L18712 9173
" />
<path d="M18571 9567
L18571 9060
L18599 9004
L18656 8976
L18712 8976
" />
<path d="M18909 9173
L18909 9764
" />
<path d="M18909 9201
L18965 9173
L19077 9173
L19134 9201
L19162 9229
L19190 9285
L19190 9454
L19162 9510
L19134 9539
L19077 9567
L18965 9567
L18909 9539
" />
<path d="M19696 9567
L19696 9257
L19668 9201
L19612 9173
L19499 9173
L19443 9201
" />
<path d="M19696 9539
L19640 9567
L19499 9567
L19443 9539
L19415 9482
L19415 9426
L19443 9370
L19499 9342
L19640 9342
L19696 9314
" />
<path d="M19949 9539
L20005 9567
L20118 9567
L20174 9539
L20202 9482
L20202 9454
L20174 9398
L20118 9370
L20034 9370
L19977 9342
L19949 9285
L19949 9257
L19977 9201
L20034 9173
L20118 9173
L20174 9201
" />
<path d="M20427 9539
L20484 9567
L20596 9567
L20652 9539
L20680 9482
L20680 9454
L20652 9398
L20596 9370
L20512 9370
L20455 9342
L20427 9285
L20427 9257
L20455 9201
L20512 9173
L20596 9173
L20652 9201
" />
</g>
<g style="fill:#000000; fill-opacity:0.0; 
stroke:#000000; stroke-width:0; stroke-opacity:1; 
stroke-linecap:round; stroke-linejoin:round;">
</g>
<g style="fill:#000000; fill-opacity:1.0; 
stroke:#000000; stroke-width:0; stroke-opacity:1; 
stroke-linecap:round; stroke-linejoin:round;">
<polyline style="fill-rule:evenodd;"
points="13681,12918
13681,12681
14292,12681
14292,12918
13681,12918
" /> 
<polyline style="fill-rule:evenodd;"
points="13681,13418
13681,13181
14292,13181
14292,13418
13681,13418
" /> 
<polyline style="fill-rule:evenodd;"
points="13681,13918
13681,13681
14292,13681
14292,13918
13681,13918
" /> 
<polyline style="fill-rule:evenodd;"
points="13681,14418
13681,14181
14292,14181
14292,14418
13681,14418
" /> 
<polyline style="fill-rule:evenodd;"
points="15807,14418
15807,14181
16418,14181
16418,14418
15807,14418
" /> 
<polyline style="fill-rule:evenodd;"
points="15807,13918
15807,13681
16418,13681
16418,13918
15807,13918
" /> 
<polyline style="fill-rule:evenodd;"
points="15807,13418
15807,13181
16418,13181
16418,13418
15807,13418
" /> 
<polyline style="fill-rule:evenodd;"
points="15807,12918
15807,12681
16418,12681
16418,12918
15807,12918
" /> 
<polyline style="fill-rule:evenodd;"
points="13574,14813
13582,14814
13591,14816
13599,14819
13606,14823
13613,14827
13620,14832
13626,14838
13632,14844
13637,14851
13641,14858
13645,14866
13648,14874
13650,14882
13651,14890
13652,14899
13652,15100
13651,15109
13650,15117
13648,15125
13645,15133
13641,15141
13637,15148
13632,15155
13626,15161
13620,15167
13613,15172
13606,15176
13599,15180
13591,15183
13582,15185
13574,15186
13566,15187
13393,15187
13385,15186
13376,15185
13368,15183
13360,15180
13353,15176
13345,15172
13339,15167
13332,15161
13327,15155
13322,15148
13317,15141
13314,15133
13311,15125
13309,15117
13308,15109
13307,15100
13307,14899
13308,14890
13309,14882
13311,14874
13314,14866
13317,14858
13322,14851
13327,14844
13332,14838
13339,14832
13345,14827
13353,14823
13360,14819
13368,14816
13376,14814
13385,14813
13393,14812
13566,14812
13574,14813
" /> 
<polyline style="fill-rule:evenodd;"
points="14194,14813
14202,14814
14211,14816
14219,14819
14226,14823
14233,14827
14240,14832
14247,14838
14252,14844
14257,14851
14262,14858
14265,14866
14268,14874
14270,14882
14271,14890
14272,14899
14272,15100
14271,15109
14270,15117
14268,15125
14265,15133
14262,15141
14257,15148
14252,15155
14247,15161
14240,15167
14233,15172
14226,15176
14219,15180
14211,15183
14202,15185
14194,15186
14186,15187
14013,15187
14005,15186
13997,15185
13988,15183
13980,15180
13973,15176
13966,15172
13959,15167
13952,15161
13947,15155
13942,15148
13937,15141
13934,15133
13931,15125
13929,15117
13928,15109
13927,15100
13927,14899
13928,14890
13929,14882
13931,14874
13934,14866
13937,14858
13942,14851
13947,14844
13952,14838
13959,14832
13966,14827
13973,14823
13980,14819
13988,14816
13997,14814
14005,14813
14013,14812
14186,14812
14194,14813
" /> 
<polyline style="fill-rule:evenodd;"
points="15984,15913
15992,15914
16001,15916
16009,15919
16016,15923
16023,15927
16030,15932
16036,15938
16042,15944
16047,15951
16052,15958
16055,15966
16058,15974
16060,15982
16061,15990
16062,15999
16062,16200
16061,16209
16060,16217
16058,16225
16055,16233
16052,16241
16047,16248
16042,16255
16036,16261
16030,16267
16023,16272
16016,16276
16009,16280
16001,16283
15992,16285
15984,16286
15976,16287
15803,16287
15795,16286
15787,16285
15778,16283
15770,16280
15763,16276
15755,16272
15749,16267
15742,16261
15737,16255
15732,16248
15727,16241
15724,16233
15721,16225
15719,16217
15718,16209
15717,16200
15717,15999
15718,15990
15719,15982
15721,15974
15724,15966
15727,15958
15732,15951
15737,15944
15742,15938
15749,15932
15755,15927
15763,15923
15770,15919
15778,15916
15787,15914
15795,15913
15803,15912
15976,15912
15984,15913
" /> 
<polyline style="fill-rule:evenodd;"
points="16604,15913
16612,15914
16621,15916
16629,15919
16636,15923
16644,15927
16650,15932
16657,15938
16662,15944
16667,15951
16672,15958
16675,15966
16678,15974
16680,15982
16681,15990
16682,15999
16682,16200
16681,16209
16680,16217
16678,16225
16675,16233
16672,16241
16667,16248
16662,16255
16657,16261
16650,16267
16644,16272
16636,16276
16629,16280
16621,16283
16612,16285
16604,16286
16596,16287
16423,16287
16415,16286
16407,16285
16398,16283
16390,16280
16383,16276
16376,16272
16369,16267
16363,16261
16357,16255
16352,16248
16347,16241
16344,16233
16341,16225
16339,16217
16338,16209
16337,16200
16337,15999
16338,15990
16339,15982
16341,15974
16344,15966
16347,15958
16352,15951
16357,15944
16363,15938
16369,15932
16376,15927
16383,15923
16390,15919
16398,15916
16407,15914
16415,15913
16423,15912
16596,15912
16604,15913
" /> 
<polyline style="fill-rule:evenodd;"
points="14090,9685
14090,10314
12909,10314
12909,9685
14090,9685
" /> 
<polyline style="fill-rule:evenodd;"
points="12358,9685
12358,10314
11177,10314
11177,9685
12358,9685
" /> 
<polyline style="fill-rule:evenodd;"
points="16094,11813
16102,11814
16111,11816
16119,11819
16126,11823
16133,11827
16140,11832
16147,11838
16152,11844
16157,11851
16162,11858
16165,11866
16168,11874
16170,11882
16171,11890
16172,11899
16172,12100
16171,12109
16170,12117
16168,12125
16165,12133
16162,12141
16157,12148
16152,12155
16147,12161
16140,12167
16133,12172
16126,12176
16119,12180
16111,12183
16102,12185
16094,12186
16086,12187
15913,12187
15905,12186
15897,12185
15888,12183
15880,12180
15873,12176
15866,12172
15859,12167
15852,12161
15847,12155
15842,12148
15837,12141
15834,12133
15831,12125
15829,12117
15828,12109
15827,12100
15827,11899
15828,11890
15829,11882
15831,11874
15834,11866
15837,11858
15842,11851
15847,11844
15852,11838
15859,11832
15866,11827
15873,11823
15880,11819
15888,11816
15897,11814
15905,11813
15913,11812
16086,11812
16094,11813
" /> 
<polyline style="fill-rule:evenodd;"
points="15474,11813
15482,11814
15491,11816
15499,11819
15506,11823
15513,11827
15520,11832
15526,11838
15532,11844
15537,11851
15541,11858
15545,11866
15548,11874
15550,11882
15551,11890
15552,11899
15552,12100
15551,12109
15550,12117
15548,12125
15545,12133
15541,12141
15537,12148
15532,12155
15526,12161
15520,12167
15513,12172
15506,12176
15499,12180
15491,12183
15482,12185
15474,12186
15466,12187
15293,12187
15285,12186
15276,12185
15268,12183
15260,12180
15253,12176
15245,12172
15239,12167
15232,12161
15227,12155
15222,12148
15217,12141
15214,12133
15211,12125
15209,12117
15208,12109
15207,12100
15207,11899
15208,11890
15209,11882
15211,11874
15214,11866
15217,11858
15222,11851
15227,11844
15232,11838
15239,11832
15245,11827
15253,11823
15260,11819
15268,11816
15276,11814
15285,11813
15293,11812
15466,11812
15474,11813
" /> 
<polyline style="fill-rule:evenodd;"
points="16114,11113
16123,11114
16131,11116
16139,11119
16146,11123
16154,11127
16160,11132
16167,11138
16172,11144
16177,11151
16182,11158
16185,11166
16188,11174
16190,11182
16191,11190
16192,11199
16192,11400
16191,11409
16190,11417
16188,11425
16185,11433
16182,11441
16177,11448
16172,11455
16167,11461
16160,11467
16154,11472
16146,11476
16139,11480
16131,11483
16123,11485
16114,11486
16106,11487
15933,11487
15925,11486
15917,11485
15908,11483
15900,11480
15893,11476
15886,11472
15879,11467
15873,11461
15867,11455
15862,11448
15858,11441
15854,11433
15851,11425
15849,11417
15848,11409
15847,11400
15847,11199
15848,11190
15849,11182
15851,11174
15854,11166
15858,11158
15862,11151
15867,11144
15873,11138
15879,11132
15886,11127
15893,11123
15900,11119
15908,11116
15917,11114
15925,11113
15933,11112
16106,11112
16114,11113
" /> 
<polyline style="fill-rule:evenodd;"
points="15494,11113
15502,11114
15511,11116
15519,11119
15526,11123
15533,11127
15540,11132
15547,11138
15552,11144
15557,11151
15562,11158
15565,11166
15568,11174
15570,11182
15571,11190
15572,11199
15572,11400
15571,11409
15570,11417
15568,11425
15565,11433
15562,11441
15557,11448
15552,11455
15547,11461
15540,11467
15533,11472
15526,11476
15519,11480
15511,11483
15502,11485
15494,11486
15486,11487
15313,11487
15305,11486
15297,11485
15288,11483
15280,11480
15273,11476
15266,11472
15259,11467
15252,11461
15247,11455
15242,11448
15237,11441
15234,11433
15231,11425
15229,11417
15228,11409
15227,11400
15227,11199
15228,11190
15229,11182
15231,11174
15234,11166
15237,11158
15242,11151
15247,11144
15252,11138
15259,11132
15266,11127
15273,11123
15280,11119
15288,11116
15297,11114
15305,11113
15313,11112
15486,11112
15494,11113
" /> 
<polyline style="fill-rule:evenodd;"
points="14714,11813
14723,11814
14731,11816
14739,11819
14746,11823
14754,11827
14760,11832
14767,11838
14772,11844
14777,11851
14782,11858
14785,11866
14788,11874
14790,11882
14791,11890
14792,11899
14792,12100
14791,12109
14790,12117
14788,12125
14785,12133
14782,12141
14777,12148
14772,12155
14767,12161
14760,12167
14754,12172
14746,12176
14739,12180
14731,12183
14723,12185
14714,12186
14706,12187
14533,12187
14525,12186
14517,12185
14508,12183
14500,12180
14493,12176
14486,12172
14479,12167
14473,12161
14467,12155
14462,12148
14458,12141
14454,12133
14451,12125
14449,12117
14448,12109
14447,12100
14447,11899
14448,11890
14449,11882
14451,11874
14454,11866
14458,11858
14462,11851
14467,11844
14473,11838
14479,11832
14486,11827
14493,11823
14500,11819
14508,11816
14517,11814
14525,11813
14533,11812
14706,11812
14714,11813
" /> 
<polyline style="fill-rule:evenodd;"
points="14094,11813
14102,11814
14111,11816
14119,11819
14126,11823
14133,11827
14140,11832
14147,11838
14152,11844
14157,11851
14162,11858
14165,11866
14168,11874
14170,11882
14171,11890
14172,11899
14172,12100
14171,12109
14170,12117
14168,12125
14165,12133
14162,12141
14157,12148
14152,12155
14147,12161
14140,12167
14133,12172
14126,12176
14119,12180
14111,12183
14102,12185
14094,12186
14086,12187
13913,12187
13905,12186
13897,12185
13888,12183
13880,12180
13873,12176
13866,12172
13859,12167
13852,12161
13847,12155
13842,12148
13837,12141
13834,12133
13831,12125
13829,12117
13828,12109
13827,12100
13827,11899
13828,11890
13829,11882
13831,11874
13834,11866
13837,11858
13842,11851
13847,11844
13852,11838
13859,11832
13866,11827
13873,11823
13880,11819
13888,11816
13897,11814
13905,11813
13913,11812
14086,11812
14094,11813
" /> 
<polyline style="fill-rule:evenodd;"
points="7505,11696
7505,11303
8494,11303
8494,11696
7505,11696
" /> 
<polyline style="fill-rule:evenodd;"
points="8809,10696
8809,10303
9797,10303
9797,10696
8809,10696
" /> 
<polyline style="fill-rule:evenodd;"
points="8809,12696
8809,12303
9797,12303
9797,12696
8809,12696
" /> 
<polyline style="fill-rule:evenodd;"
points="18405,12696
18405,12303
19394,12303
19394,12696
18405,12696
" /> 
<polyline style="fill-rule:evenodd;"
points="19709,11696
19709,11303
20697,11303
20697,11696
19709,11696
" /> 
<polyline style="fill-rule:evenodd;"
points="11209,14028
11217,14029
11225,14031
11233,14034
11241,14037
11248,14042
11255,14047
11261,14052
11267,14059
11272,14066
11276,14073
11280,14080
11283,14088
11285,14097
11286,14105
11287,14113
11287,14286
11286,14294
11285,14302
11283,14311
11280,14319
11276,14326
11272,14333
11267,14340
11261,14347
11255,14352
11248,14357
11241,14362
11233,14365
11225,14368
11217,14370
11209,14371
11200,14372
10999,14372
10990,14371
10982,14370
10974,14368
10966,14365
10958,14362
10951,14357
10944,14352
10938,14347
10932,14340
10927,14333
10923,14326
10919,14319
10916,14311
10914,14302
10913,14294
10912,14286
10912,14113
10913,14105
10914,14097
10916,14088
10919,14080
10923,14073
10927,14066
10932,14059
10938,14052
10944,14047
10951,14042
10958,14037
10966,14034
10974,14031
10982,14029
10990,14028
10999,14027
11200,14027
11209,14028
" /> 
<polyline style="fill-rule:evenodd;"
points="11209,13408
11217,13409
11225,13411
11233,13414
11241,13417
11248,13422
11255,13427
11261,13432
11267,13439
11272,13445
11276,13453
11280,13460
11283,13468
11285,13476
11286,13485
11287,13493
11287,13666
11286,13674
11285,13682
11283,13691
11280,13699
11276,13706
11272,13713
11267,13720
11261,13726
11255,13732
11248,13737
11241,13741
11233,13745
11225,13748
11217,13750
11209,13751
11200,13752
10999,13752
10990,13751
10982,13750
10974,13748
10966,13745
10958,13741
10951,13737
10944,13732
10938,13726
10932,13720
10927,13713
10923,13706
10919,13699
10916,13691
10914,13682
10913,13674
10912,13666
10912,13493
10913,13485
10914,13476
10916,13468
10919,13460
10923,13453
10927,13445
10932,13439
10938,13432
10944,13427
10951,13422
10958,13417
10966,13414
10974,13411
10982,13409
10990,13408
10999,13407
11200,13407
11209,13408
" /> 
<polyline style="fill-rule:evenodd;"
points="11774,14813
11782,14814
11791,14816
11799,14819
11806,14823
11813,14827
11820,14832
11826,14838
11832,14844
11837,14851
11841,14858
11845,14866
11848,14874
11850,14882
11851,14890
11852,14899
11852,15100
11851,15109
11850,15117
11848,15125
11845,15133
11841,15141
11837,15148
11832,15155
11826,15161
11820,15167
11813,15172
11806,15176
11799,15180
11791,15183
11782,15185
11774,15186
11766,15187
11593,15187
11585,15186
11576,15185
11568,15183
11560,15180
11553,15176
11545,15172
11539,15167
11532,15161
11527,15155
11522,15148
11517,15141
11514,15133
11511,15125
11509,15117
11508,15109
11507,15100
11507,14899
11508,14890
11509,14882
11511,14874
11514,14866
11517,14858
11522,14851
11527,14844
11532,14838
11539,14832
11545,14827
11553,14823
11560,14819
11568,14816
11576,14814
11585,14813
11593,14812
11766,14812
11774,14813
" /> 
<polyline style="fill-rule:evenodd;"
points="12394,14813
12402,14814
12411,14816
12419,14819
12426,14823
12433,14827
12440,14832
12447,14838
12452,14844
12457,14851
12462,14858
12465,14866
12468,14874
12470,14882
12471,14890
12472,14899
12472,15100
12471,15109
12470,15117
12468,15125
12465,15133
12462,15141
12457,15148
12452,15155
12447,15161
12440,15167
12433,15172
12426,15176
12419,15180
12411,15183
12402,15185
12394,15186
12386,15187
12213,15187
12205,15186
12197,15185
12188,15183
12180,15180
12173,15176
12166,15172
12159,15167
12152,15161
12147,15155
12142,15148
12137,15141
12134,15133
12131,15125
12129,15117
12128,15109
12127,15100
12127,14899
12128,14890
12129,14882
12131,14874
12134,14866
12137,14858
12142,14851
12147,14844
12152,14838
12159,14832
12166,14827
12173,14823
12180,14819
12188,14816
12197,14814
12205,14813
12213,14812
12386,14812
12394,14813
" /> 
<polyline style="fill-rule:evenodd;"
points="15614,14813
15623,14814
15631,14816
15639,14819
15646,14823
15654,14827
15660,14832
15667,14838
15672,14844
15677,14851
15682,14858
15685,14866
15688,14874
15690,14882
15691,14890
15692,14899
15692,15100
15691,15109
15690,15117
15688,15125
15685,15133
15682,15141
15677,15148
15672,15155
15667,15161
15660,15167
15654,15172
15646,15176
15639,15180
15631,15183
15623,15185
15614,15186
15606,15187
15433,15187
15425,15186
15417,15185
15408,15183
15400,15180
15393,15176
15386,15172
15379,15167
15373,15161
15367,15155
15362,15148
15358,15141
15354,15133
15351,15125
15349,15117
15348,15109
15347,15100
15347,14899
15348,14890
15349,14882
15351,14874
15354,14866
15358,14858
15362,14851
15367,14844
15373,14838
15379,14832
15386,14827
15393,14823
15400,14819
15408,14816
15417,14814
15425,14813
15433,14812
15606,14812
15614,14813
" /> 
<polyline style="fill-rule:evenodd;"
points="14994,14813
15002,14814
15011,14816
15019,14819
15026,14823
15033,14827
15040,14832
15047,14838
15052,14844
15057,14851
15062,14858
15065,14866
15068,14874
15070,14882
15071,14890
15072,14899
15072,15100
15071,15109
15070,15117
15068,15125
15065,15133
15062,15141
15057,15148
15052,15155
15047,15161
15040,15167
15033,15172
15026,15176
15019,15180
15011,15183
15002,15185
14994,15186
14986,15187
14813,15187
14805,15186
14797,15185
14788,15183
14780,15180
14773,15176
14766,15172
14759,15167
14752,15161
14747,15155
14742,15148
14737,15141
14734,15133
14731,15125
14729,15117
14728,15109
14727,15100
14727,14899
14728,14890
14729,14882
14731,14874
14734,14866
14737,14858
14742,14851
14747,14844
14752,14838
14759,14832
14766,14827
14773,14823
14780,14819
14788,14816
14797,14814
14805,14813
14813,14812
14986,14812
14994,14813
" /> 
<polyline style="fill-rule:evenodd;"
points="13209,11228
13217,11229
13225,11231
13233,11234
13241,11237
13248,11242
13255,11247
13261,11252
13267,11259
13272,11266
13276,11273
13280,11280
13283,11288
13285,11297
13286,11305
13287,11313
13287,11486
13286,11494
13285,11502
13283,11511
13280,11519
13276,11526
13272,11533
13267,11540
13261,11547
13255,11552
13248,11557
13241,11562
13233,11565
13225,11568
13217,11570
13209,11571
13200,11572
12999,11572
12990,11571
12982,11570
12974,11568
12966,11565
12958,11562
12951,11557
12944,11552
12938,11547
12932,11540
12927,11533
12923,11526
12919,11519
12916,11511
12914,11502
12913,11494
12912,11486
12912,11313
12913,11305
12914,11297
12916,11288
12919,11280
12923,11273
12927,11266
12932,11259
12938,11252
12944,11247
12951,11242
12958,11237
12966,11234
12974,11231
12982,11229
12990,11228
12999,11227
13200,11227
13209,11228
" /> 
<polyline style="fill-rule:evenodd;"
points="13209,11848
13217,11849
13225,11851
13233,11854
13241,11858
13248,11862
13255,11867
13261,11873
13267,11879
13272,11886
13276,11893
13280,11900
13283,11908
13285,11917
13286,11925
13287,11933
13287,12106
13286,12114
13285,12123
13283,12131
13280,12139
13276,12146
13272,12154
13267,12160
13261,12167
13255,12172
13248,12177
13241,12182
13233,12185
13225,12188
13217,12190
13209,12191
13200,12192
12999,12192
12990,12191
12982,12190
12974,12188
12966,12185
12958,12182
12951,12177
12944,12172
12938,12167
12932,12160
12927,12154
12923,12146
12919,12139
12916,12131
12914,12123
12913,12114
12912,12106
12912,11933
12913,11925
12914,11917
12916,11908
12919,11900
12923,11893
12927,11886
12932,11879
12938,11873
12944,11867
12951,11862
12958,11858
12966,11854
12974,11851
12982,11849
12990,11848
12999,11847
13200,11847
13209,11848
" /> 
<polyline style="fill-rule:evenodd;"
points="13204,14113
13212,14114
13221,14116
13229,14119
13236,14123
13244,14127
13250,14132
13257,14138
13262,14144
13267,14151
13272,14158
13275,14166
13278,14174
13280,14182
13281,14190
13282,14199
13282,14400
13281,14409
13280,14417
13278,14425
13275,14433
13272,14441
13267,14448
13262,14455
13257,14461
13250,14467
13244,14472
13236,14476
13229,14480
13221,14483
13212,14485
13204,14486
13196,14487
13023,14487
13015,14486
13007,14485
12998,14483
12990,14480
12983,14476
12976,14472
12969,14467
12963,14461
12957,14455
12952,14448
12947,14441
12944,14433
12941,14425
12939,14417
12938,14409
12937,14400
12937,14199
12938,14190
12939,14182
12941,14174
12944,14166
12947,14158
12952,14151
12957,14144
12963,14138
12969,14132
12976,14127
12983,14123
12990,14119
12998,14116
13007,14114
13015,14113
13023,14112
13196,14112
13204,14113
" /> 
<polyline style="fill-rule:evenodd;"
points="12584,14113
12592,14114
12601,14116
12609,14119
12616,14123
12623,14127
12630,14132
12636,14138
12642,14144
12647,14151
12652,14158
12655,14166
12658,14174
12660,14182
12661,14190
12662,14199
12662,14400
12661,14409
12660,14417
12658,14425
12655,14433
12652,14441
12647,14448
12642,14455
12636,14461
12630,14467
12623,14472
12616,14476
12609,14480
12601,14483
12592,14485
12584,14486
12576,14487
12403,14487
12395,14486
12387,14485
12378,14483
12370,14480
12363,14476
12355,14472
12349,14467
12342,14461
12337,14455
12332,14448
12327,14441
12324,14433
12321,14425
12319,14417
12318,14409
12317,14400
12317,14199
12318,14190
12319,14182
12321,14174
12324,14166
12327,14158
12332,14151
12337,14144
12342,14138
12349,14132
12355,14127
12363,14123
12370,14119
12378,14116
12387,14114
12395,14113
12403,14112
12576,14112
12584,14113
" /> 
<polyline style="fill-rule:evenodd;"
points="19826,14803
19826,14291
20338,14291
20338,14803
19826,14803
" /> 
<polyline style="fill-rule:evenodd;"
points="17523,15255
17523,14744
18311,14744
18311,15255
17523,15255
" /> 
<polyline style="fill-rule:evenodd;"
points="19826,15708
19826,15196
20338,15196
20338,15708
19826,15708
" /> 
</g>
<g style="fill:#000000; fill-opacity:1.0; 
stroke:#000000; stroke-width:98.4252; stroke-opacity:1; 
stroke-linecap:round; stroke-linejoin:round;">
</g>
<g style="fill:#000000; fill-opacity:0.0; 
stroke:#000000; stroke-width:98.4252; stroke-opacity:1; 
stroke-linecap:round; stroke-linejoin:round;">
<path d="M10020 12500
L11100 13579
" />
<path d="M9303 12500
L10020 12500
" />
<path d="M11100 14420
L11679 15000
" />
<path d="M11100 14200
L11100 14420
" />
<path d="M11679 15000
L12679 16000
" />
<path d="M12779 16100
L12679 16000
" />
<path d="M15889 16100
L12779 16100
" />
<path d="M19610 11500
L20203 11500
" />
<path d="M18066 11500
L19610 11500
" />
<path d="M16266 13300
L18066 11500
" />
<path d="M16112 13300
L16266 13300
" />
<path d="M20203 14426
L20082 14547
" />
<path d="M20203 11500
L20203 14426
" />
<path d="M19728 14547
L18175 16100
" />
<path d="M20082 14547
L19728 14547
" />
<path d="M16510 16100
L18175 16100
" />
<path d="M12300 15000
L13479 15000
" />
<path d="M13794 15314
L13661 15181
" />
<path d="M15074 15314
L13794 15314
" />
<path d="M15200 15189
L15074 15314
" />
<path d="M15200 14809
L15200 15189
" />
<path d="M15709 14300
L15200 14809
" />
<path d="M13661 15181
L13479 15000
" />
<path d="M16112 14300
L15709 14300
" />
<path d="M14000 12787
L13987 12800
" />
<path d="M14000 12000
L14000 12787
" />
<path d="M13987 12800
L13987 13300
" />
<path d="M13583 13300
L13987 13300
" />
<path d="M14100 15000
L14900 15000
" />
<path d="M18602 12500
L18900 12500
" />
<path d="M13714 14614
L12114 14614
" />
<path d="M14100 15000
L13714 14614
" />
<path d="M12114 14614
L11800 14300
" />
<path d="M11800 14300
L11800 13700
" />
<path d="M12200 13300
L13987 13300
" />
<path d="M11800 13700
L12200 13300
" />
<path d="M14900 14773
L15627 14046
" />
<path d="M14900 15000
L14900 14773
" />
<path d="M15699 11830
L15699 12400
" />
<path d="M15400 11300
L15400 11530
" />
<path d="M15400 11530
L15699 11830
" />
<path d="M15699 12400
L15627 12472
" />
<path d="M15673 13546
L15627 13500
" />
<path d="M18900 12795
L18149 13546
" />
<path d="M18900 12500
L18900 12795
" />
<path d="M15627 12472
L15627 13500
" />
<path d="M18149 13546
L15673 13546
" />
<path d="M15627 13500
L15627 14046
" />
<path d="M9303 10204
L10507 9000
" />
<path d="M9303 10500
L9303 10204
" />
<path d="M13224 10000
L13500 10000
" />
<path d="M12224 9000
L13224 10000
" />
<path d="M10507 9000
L12224 9000
" />
<path d="M13110 10389
L13500 10000
" />
<path d="M16000 12687
L16112 12800
" />
<path d="M16000 12000
L16000 12687
" />
<path d="M16120 11879
L16000 12000
" />
<path d="M13100 10400
L13500 10000
" />
<path d="M13100 11400
L13100 10400
" />
<path d="M16020 11979
L16000 12000
" />
<path d="M16020 11300
L16020 11979
" />
<path d="M14720 10000
L16020 11300
" />
<path d="M13500 10000
L14720 10000
" />
<path d="M14620 12000
L15379 12000
" />
<path d="M14174 14300
L13987 14300
" />
<path d="M8000 11500
L10681 11500
" />
<path d="M14900 12506
L14620 12226
" />
<path d="M14620 12226
L14620 12000
" />
<path d="M14900 13900
L14900 12506
" />
<path d="M13987 14300
L14500 14300
" />
<path d="M14500 14300
L14900 13900
" />
<path d="M13110 14300
L13987 14300
" />
<path d="M13289 11700
L12900 11700
" />
<path d="M13481 11507
L13289 11700
" />
<path d="M14354 11507
L13481 11507
" />
<path d="M14620 12000
L14620 11773
" />
<path d="M14620 11773
L14354 11507
" />
<path d="M11767 10567
L11767 10000
" />
<path d="M12900 11700
L11767 10567
" />
<path d="M11767 10413
L11767 10000
" />
<path d="M10681 11500
L11767 10413
" />
<path d="M18766 16414
L19728 15452
" />
<path d="M16335 16414
L18766 16414
" />
<path d="M16190 16269
L16335 16414
" />
<path d="M16190 15896
L16190 16269
" />
<path d="M15520 15226
L16190 15896
" />
<path d="M19728 15452
L20082 15452
" />
<path d="M15520 15000
L15520 15226
" />
<path d="M12479 14300
L12400 14220
" />
<path d="M12489 14300
L12489 13910
" />
<path d="M12600 13800
L13987 13800
" />
<path d="M12489 13910
L12600 13800
" />
<path d="M14174 13800
L13987 13800
" />
<path d="M14420 13553
L14174 13800
" />
<path d="M14420 12579
L14420 13553
" />
<path d="M14300 12459
L14420 12579
" />
<path d="M14300 11810
L14300 12459
" />
<path d="M14174 11685
L14300 11810
" />
<path d="M13100 12020
L13479 12020
" />
<path d="M13814 11685
L14174 11685
" />
<path d="M13479 12020
L13814 11685
" />
<path d="M17917 14645
L17917 15000
" />
<path d="M17071 13800
L17917 14645
" />
<path d="M16112 13800
L17071 13800
" />
</g>
<g style="fill:#000000; fill-opacity:1.0; 
stroke:#000000; stroke-width:100; stroke-opacity:1; 
stroke-linecap:round; stroke-linejoin:round;">
<polyline style="fill-rule:evenodd;"
points="9112,9972
9087,9989
9070,10013
9070,10013
9047,10048
8809,10048
8711,10067
8628,10122
8573,10205
8554,10303
8554,10696
8573,10794
8628,10877
8711,10932
8809,10951
9797,10951
9894,10932
9977,10877
10032,10794
10052,10696
10052,10303
10032,10205
9977,10122
9961,10112
10927,10112
10927,10364
10965,10456
11035,10526
11127,10564
11655,10564
11717,10502
11717,10050
11817,10050
11817,10502
11880,10564
12407,10564
12499,10526
12570,10456
12608,10364
12608,10112
12545,10050
11817,10050
11717,10050
10989,10050
10927,10112
9961,10112
9894,10067
9868,10062
10295,9635
10927,9635
10927,9887
10989,9950
11717,9950
11717,9497
11655,9435
11127,9435
11035,9473
10965,9543
10927,9635
10295,9635
10631,9299
12100,9299
12236,9435
11880,9435
11817,9497
11817,9950
12545,9950
12608,9887
12608,9807
12654,9853
12654,10314
12673,10412
12729,10495
12800,10543
12800,11044
12757,11072
12684,11183
12658,11313
12658,11486
12684,11616
12746,11710
12684,11803
12658,11933
12658,12106
12684,12236
12757,12347
12868,12421
12999,12447
13200,12447
13331,12421
13442,12347
13459,12321
13479,12325
13509,12319
13509,12319
13596,12301
13630,12279
13672,12342
13700,12360
13700,12426
13681,12426
13584,12446
13501,12501
13446,12584
13426,12681
13426,12918
13443,13000
12229,13000
12200,12994
12170,13000
12170,13000
12083,13018
11984,13084
11967,13109
11609,13467
11584,13484
11567,13509
11567,13509
11541,13547
11541,13493
11515,13363
11442,13252
11331,13178
11200,13152
11096,13152
10252,12309
10235,12284
10136,12218
10049,12200
10049,12200
10026,12196
9977,12122
9894,12067
9797,12048
8809,12048
8711,12067
8628,12122
8573,12205
8554,12303
8554,12696
8573,12794
8628,12877
8711,12932
8809,12951
9797,12951
9894,12932
9975,12878
10658,13561
10658,13666
10684,13796
10746,13889
10684,13983
10658,14113
10658,14286
10684,14416
10757,14527
10855,14592
10884,14635
10909,14652
11252,14996
11252,15100
11278,15231
11352,15342
11463,15415
11593,15441
11698,15441
12489,16232
12489,16232
12547,16290
12564,16315
12663,16381
12750,16399
12750,16399
12779,16405
12809,16399
15534,16399
15562,16442
15673,16515
15803,16541
15976,16541
16028,16531
16102,16605
16112,16620
7279,16620
7279,11803
7293,11838
7364,11908
7456,11946
7887,11946
7950,11884
7950,11550
8050,11550
8050,11884
8112,11946
8543,11946
8635,11908
8706,11838
8744,11746
8744,11612
8681,11550
8050,11550
7950,11550
7942,11550
7942,11450
7950,11450
7950,11115
8050,11115
8050,11450
8681,11450
8744,11387
8744,11253
8706,11161
8635,11091
8543,11053
8112,11053
8050,11115
7950,11115
7887,11053
7456,11053
7364,11091
7293,11161
7279,11196
7279,8879
10205,8879
9112,9972
" /> 
<polyline style="fill-rule:evenodd;"
points="15066,12398
15157,12437
15267,12437
15329,12374
15329,12435
15328,12442
15328,12442
15322,12472
15328,12501
15328,13470
15328,13470
15328,13470
15322,13500
15328,13529
15328,13922
14709,14541
14684,14557
14653,14604
14572,14657
14544,14700
14455,14700
14427,14657
14403,14642
14433,14630
14504,14559
14542,14467
14542,14412
14479,14350
14037,14350
14037,14357
13937,14357
13937,14350
13856,14350
13831,14333
13744,14315
13744,14315
13714,14309
13685,14315
13052,14315
13052,14250
13060,14250
13060,14242
13160,14242
13160,14250
13469,14250
13482,14237
13494,14250
13937,14250
13937,14242
14037,14242
14037,14250
14479,14250
14542,14187
14542,14132
14506,14046
14527,14015
14547,13918
14547,13850
14610,13786
14635,13769
14701,13670
14719,13583
14719,13583
14725,13553
14719,13524
14719,12608
14725,12579
14719,12550
14719,12550
14701,12462
14670,12415
14670,12374
14732,12437
14842,12437
14933,12398
15000,12332
15066,12398
" /> 
<polyline style="fill-rule:evenodd;"
points="15181,10885
15072,10957
14998,11068
14972,11199
14972,11400
14998,11531
15053,11613
15000,11667
14933,11601
14842,11562
14732,11562
14670,11625
14670,11950
14979,11950
15000,11929
15020,11950
15329,11950
15329,11942
15388,11942
15400,11954
15400,12057
15329,12057
15329,12050
15020,12050
15000,12070
14979,12050
14670,12050
14670,12057
14599,12057
14599,11839
14605,11810
14599,11780
14599,11780
14582,11698
14582,11693
14570,11675
14570,11625
14507,11562
14475,11562
14407,11494
14390,11469
14291,11403
14204,11385
14204,11385
14174,11379
14145,11385
13844,11385
13814,11379
13785,11385
13785,11385
13698,11403
13599,11469
13582,11494
13529,11547
13541,11486
13541,11313
13515,11183
13442,11072
13399,11044
13399,10569
14090,10569
14188,10550
14270,10495
14326,10412
14345,10314
14345,10299
14596,10299
15181,10885
" /> 
</g> 
</svg>
